/* XPM */
static char *Solarfish1721524093[] = {
/* columns rows colors chars-per-pixel */
"128 128 24 1 ",
"  c black",
". c #2D4F22",
"X c #394625",
"o c #4E4618",
"O c #56601D",
"+ c #46572F",
"@ c #5A523A",
"# c #6A732B",
"$ c #6D6C3F",
"% c #AE4114",
"& c #C05C11",
"* c #E96800",
"= c #FFBE0F",
"- c #F4A436",
"; c #FFCB3E",
": c #9D8749",
"> c #BAA643",
", c #ADAD5A",
"< c #D6D863",
"1 c #449ECC",
"2 c #989A91",
"3 c #E2DC8C",
"4 c #C3C7A9",
"5 c gray95",
/* pixels */
"11111111111111111111111111111111111111111111111111111111111111111111111111111111111111111111111111111111111111111111111111111111",
"11111111111111111111111111111111111111111111111111111111111111111111111111111111111111111111111111111111111111111111111111111111",
"11111111111111111111111111111111111111111111111111111111111111111111111111111111111111111111111111111111111111111111111111111111",
"11111111111111111111111111111111111111111111111111111111111111111111111111111111111111111111111111111111111111111111111111111111",
"11111111111111111111111111111111111111111111111111111111111111111111111111111111111111111111111111111111111111111111111111111111",
"11111111111111111111111111111111111111111111111111111111111111111111111111111111111111111111111111111111111111111111111111111111",
"11111111111111111111111111111111111111111111111111111111111111111111111111111111111111111111111111111111111111111111111111111111",
"11111111111111111111111111111111111111111111111111111111111111111111111111111111111111111111111111111111111111111111111111111111",
"11111111111111111111111111111111111111111111111111111111111111111111111111111111111111111111111111111111111111111111111111111111",
"11111111111111111111111111111111111111111111111111111111111111111111111111111111111111111111111111111111111111111111111111111111",
"11111111111111111111111111111111111111111111111111111111111111111111111111111111111111111111111111111111111111111111111111111111",
"11111111111111111111111111111111111111111111111111111111111111111111111111111111111111111111111111111111111111111111111111111111",
"11111111111111111111111111111111111111111111111111111111111111111111111111111111111111111111111111111111111111111111111111111111",
"11111111111111111111111111111111111111111111111111111111111111111111111111111111111111111111111111111111111111111111111111111111",
"11111111111111111111111111111111111111111111111111111111111111111111111111111111111111111111111111111111111111111111111111111111",
"11111111111111111111111111111111111111111111111111111111111111111111111111111111111111111111111111111111111111111111111111111111",
"11111111111111111111111111111111111111111111111111111111111111111111111111111111111111111111111111111111111111111111111111111111",
"11111111111111111111111111111111111111111111111111111111111111111111111111111111111111111111111111111111111111111111111111111111",
"11111111111111111111111111111111111111111111111111111111111111111111111111111111111111111111111111111111111111111111111111111111",
"11111111111111111111111111111111111111111111111111111111111111111111111111111111111111111111111111111111111111111111111111111111",
"11111111111111111111111111111111111111111111111111111111111111111111111111111111111111111111111111111111111111111111111111111111",
"11111111111111111111111111111111111111111111111111111111111111111111111111111111111111111111111111111111111111111111111111111111",
"11111111111111111111111111111111111111111111111111111111111111111111111111111111111111111111111111111111111111111111111111111111",
"11111111111111111111111111111111111111111111111111111111111111111111111111111111111111111111111111111111111111111111111111111111",
"11111111111111111111111111111111111111111111111111111111111111111111111111111111111111111111111111111111111111111111111111111111",
"11111111111111111111111111111111111111111111111111111111111111111111111111111111111111111111111111111111111111111111111111111111",
"11111111111111111111111111111111111111111111111111111111111111111111111111111111111111111111111111111111111111111111111111111111",
"11111111111111111111111111111111111111111111111111111111111111111111111111111111111111111111111111111111111111111111111111111111",
"11111111111111111111111111111111111111111111111111111111111111111111111111111111111111111111111111111111111111111111111111111111",
"11111111111111111111111111111111111111111111111111111111111111111111111111111111111111111111111111111111111111111111111111111111",
"111111111111111111111111111111111111111111111111111111111111111111111111111111111111111111<<<<1111111111111111111111111111111111",
"111111111111111111111111111111111111111111111111111111111111111111111111111111111111111111<<<<1111111111111111111111111111111111",
"1111111111111111111111111111111111111111111111111111111111111133333333......<<<<<<<<<<<<<<OO##..11111111111111111111111111111111",
"1111111111111111111111111111111111111111111111111111111111111133333333......<<<<<<<<<<<<<<OO##..11111111111111111111111111111111",
"1111111111111111111111111111111111111111111111111111111111333333::::,,,,$$$$$$<<OOOO5555######..11111111111111111111111111111111",
"1111111111111111111111111111111111111111111111111111111111333333::::,,,,$$$$$$<<OOOO5555######..11111111111111111111111111111111",
"111111111111111111111111111111111111111111111111111111333333,,,,,,,,$$OOXXXXXXOOOO##55  ####++..11111111111111111111111111111111",
"111111111111111111111111111111111111111111111111111111333333,,,,,,,,$$OOXXXXXXOOOO##55  ####++..11111111111111111111111111111111",
"111111111111111111111111111111111111111111111111111133::::::::::,,XXXXXXXXXXXX##############++..11111111111111111111111111111111",
"111111111111111111111111111111111111111111111111111133::::::::::,,XXXXXXXXXXXX##############++..11111111111111111111111111111111",
"1111111111111111111111111111111111111111111111111133,,,,,,,,,,,,XXOOOOOOOOOOXX############++22..11111111111111111111111111111111",
"1111111111111111111111111111111111111111111111111133,,,,,,,,,,,,XXOOOOOOOOOOXX############++22..11111111111111111111111111111111",
"11111111111111111111111111111111111111111111111133::::::::::,,XXOOOO####OOOOXX########++++2244..11111111111111111111111111111111",
"11111111111111111111111111111111111111111111111133::::::::::,,XXOOOO####OOOOXX########++++2244..11111111111111111111111111111111",
"111111111111111111111111111111111111111111111133,,,,,,,,,,,,XXOOOO########OOOO;;####++##++4444..11111111111111111111111111111111",
"111111111111111111111111111111111111111111111133,,,,,,,,,,,,XXOOOO########OOOO;;####++##++4444..11111111111111111111111111111111",
"1111111111111111111111111111111111111111111133,,,,::,,,,,,XXOOOO######;;####OO##;;++##++22**..1111111111111111111111111111111111",
"1111111111111111111111111111111111111111111133,,,,::,,,,,,XXOOOO######;;####OO##;;++##++22**..1111111111111111111111111111111111",
"1111111111111111111111111111111111111111111133::::,,::::$$XXoooo;;######;;##      ;;++++44%%..1111111111111111111111111111111111",
"1111111111111111111111111111111111111111111133::::,,::::$$XXoooo;;######;;##      ;;++++44%%..1111111111111111111111111111111111",
"11111111111111111111111111111111111111111133,,,,,,,,,,$$XXOOoo##;;;;####;;;;##    ;;;;==&&%%..1111111111111111111111111111111111",
"11111111111111111111111111111111111111111133,,,,,,,,,,$$XXOOoo##;;;;####;;;;##    ;;;;==&&%%..1111111111111111111111111111111111",
"11111111111111111111111111111111111111111133,,::::::::XXXXoo##oo##;;;;####;;,,::##==****%%..111111111111111111111111111111111111",
"11111111111111111111111111111111111111111133,,::::::::XXXXoo##oo##;;;;####;;,,::##==****%%..111111111111111111111111111111111111",
"1111111111111111111111111111111111111111..::::,,,,,,$$XXOOOO;;######;;;;,,,,::,,::**%%%%%%$$331111111111111111111111111111111111",
"1111111111111111111111111111111111111111..::::,,,,,,$$XXOOOO;;######;;;;,,,,::,,::**%%%%%%$$331111111111111111111111111111111111",
"1111111111111111111111111111111111111111..,,,,,,::::XXXXOO<<##;;####,,,,,,::,,::,,**==&&>>$$331111111111111111111111111111111111",
"1111111111111111111111111111111111111111..,,,,,,::::XXXXOO<<##;;####,,,,,,::,,::,,**==&&>>$$331111111111111111111111111111111111",
"1111111111111111111111111111111111111111..,,,,::,,$$XXXXoooo<<##;;,,,,::::,,::,,;;;;&&>>::$$,,3311111111111111111111111111111111",
"1111111111111111111111111111111111111111..,,,,::,,$$XXXXoooo<<##;;,,,,::::,,::,,;;;;&&>>::$$,,3311111111111111111111111111111111",
"1111111111111111111111111111111111111111..,,::$$$$$$XXoooo<<##<<,,::::,,,,,,,,##==&&>>..$$::,,3311111111111111111111111111111111",
"1111111111111111111111111111111111111111..,,::$$$$$$XXoooo<<##<<,,::::,,,,,,,,##==&&>>..$$::,,3311111111111111111111111111111111",
"1111111111111111111111111111111111111111..........$$XXOO<<##<<##,,,,,,,,,,,,;;;;&&>>..11..,,::3311111111111111111111111111111111",
"1111111111111111111111111111111111111111..........$$XXOO<<##<<##,,,,,,,,,,,,;;;;&&>>..11..,,::3311111111111111111111111111111111",
"1111111111111111111111111111111111111111..11111111<<XX<<##;;;;####,,,,,,,,####;;--&&..1111..::3311111111111111111111111111111111",
"1111111111111111111111111111111111111111..11111111<<XX<<##;;;;####,,,,,,,,####;;--&&..1111..::3311111111111111111111111111111111",
"11111111111111111111111111111111111111111111111111<<OOOO<<####;;;;######;;------&&>>..1111..::3311111111111111111111111111111111",
"11111111111111111111111111111111111111111111111111<<OOOO<<####;;;;######;;------&&>>..1111..::3311111111111111111111111111111111",
"11111111111111111111111111111111111111111111111111<<OO##########;;;;;;####;;--;;>>..11111111..1111111111111111111111111111111111",
"11111111111111111111111111111111111111111111111111<<OO##########;;;;;;####;;--;;>>..11111111..1111111111111111111111111111111111",
"111111111111111111111111111111111111111111<<<<<<<<<<OO##++##++##++;;;;;;----;;>>..1111111111..1111111111111111111111111111111111",
"111111111111111111111111111111111111111111<<<<<<<<<<OO##++##++##++;;;;;;----;;>>..1111111111..1111111111111111111111111111111111",
"111111111111111111111111111111111111333333,,,,$$::XXOO++##++##++++++;;--;;$$>>::..1111111111111111111111111111111111111111111111",
"111111111111111111111111111111111111333333,,,,$$::XXOO++##++##++++++;;--;;$$>>::..1111111111111111111111111111111111111111111111",
"111111111111111111111111111111111133$$,,,,::::::::XX####++##....++;;>>@@@@::$$..111111111111111111111111111111111111111111111111",
"111111111111111111111111111111111133$$,,,,::::::::XX####++##....++;;>>@@@@::$$..111111111111111111111111111111111111111111111111",
"1111111111111111111111111111111133::::::::,,,,::$$::::++++..1111..>>@@@@$$::..11111111111111111111111111111111111111111111111111",
"1111111111111111111111111111111133::::::::,,,,::$$::::++++..1111..>>@@@@$$::..11111111111111111111111111111111111111111111111111",
"11111111111111111111111111111111..,,,,,,,,::::,,::$$::::..111111..@@@@@@::@@..11111111111111111111111111111111111111111111111111",
"11111111111111111111111111111111..,,,,,,,,::::,,::$$::::..111111..@@@@@@::@@..11111111111111111111111111111111111111111111111111",
"11111111111111111111111111111111..,,,,,,::,,,,::,,$$::@@..111111..@@::,,@@..1111111111111111111111111111111111111111111111111111",
"11111111111111111111111111111111..,,,,,,::,,,,::,,$$::@@..111111..@@::,,@@..1111111111111111111111111111111111111111111111111111",
"11111111111111111111111111111111..,,......,,::,,,,::,,@@..111111..,,::,,..111111111111111111111111111111111111111111111111111111",
"11111111111111111111111111111111..,,......,,::,,,,::,,@@..111111..,,::,,..111111111111111111111111111111111111111111111111111111",
"1111111111111111111111111111111111..111111....,,,,::,,@@..111111..::,,..11111111111111111111111111111111111111111111111111111111",
"1111111111111111111111111111111111..111111....,,,,::,,@@..111111..::,,..11111111111111111111111111111111111111111111111111111111",
"1111111111111111111111111111111111111111111111..,,::,,@@..11111111....1111111111111111111111111111111111111111111111111111111111",
"1111111111111111111111111111111111111111111111..,,::,,@@..11111111....1111111111111111111111111111111111111111111111111111111111",
"111111111111111111111111111111111111111111111111..,,@@$$..1111111111111111111111111111111111111111111111111111111111111111111111",
"111111111111111111111111111111111111111111111111..,,@@$$..1111111111111111111111111111111111111111111111111111111111111111111111",
"111111111111111111111111111111111111111111111111..@@::..111111111111111111111111111111111111111111111111111111111111111111111111",
"111111111111111111111111111111111111111111111111..@@::..111111111111111111111111111111111111111111111111111111111111111111111111",
"1111111111111111111111111111111111111111111111..,,$$@@..111111111111111111111111111111111111111111111111111111111111111111111111",
"1111111111111111111111111111111111111111111111..,,$$@@..111111111111111111111111111111111111111111111111111111111111111111111111",
"1111111111111111111111111111111111111111111111..$$::..11111111111111111111111111111111111111111111111111111111111111111111111111",
"1111111111111111111111111111111111111111111111..$$::..11111111111111111111111111111111111111111111111111111111111111111111111111",
"111111111111111111111111111111111111111111111111....1111111111111111111111111111111111111111111111111111111111111111111111111111",
"111111111111111111111111111111111111111111111111....1111111111111111111111111111111111111111111111111111111111111111111111111111",
"11111111111111111111111111111111111111111111111111111111111111111111111111111111111111111111111111111111111111111111111111111111",
"11111111111111111111111111111111111111111111111111111111111111111111111111111111111111111111111111111111111111111111111111111111",
"11111111111111111111111111111111111111111111111111111111111111111111111111111111111111111111111111111111111111111111111111111111",
"11111111111111111111111111111111111111111111111111111111111111111111111111111111111111111111111111111111111111111111111111111111",
"11111111111111111111111111111111111111111111111111111111111111111111111111111111111111111111111111111111111111111111111111111111",
"11111111111111111111111111111111111111111111111111111111111111111111111111111111111111111111111111111111111111111111111111111111",
"11111111111111111111111111111111111111111111111111111111111111111111111111111111111111111111111111111111111111111111111111111111",
"11111111111111111111111111111111111111111111111111111111111111111111111111111111111111111111111111111111111111111111111111111111",
"11111111111111111111111111111111111111111111111111111111111111111111111111111111111111111111111111111111111111111111111111111111",
"11111111111111111111111111111111111111111111111111111111111111111111111111111111111111111111111111111111111111111111111111111111",
"11111111111111111111111111111111111111111111111111111111111111111111111111111111111111111111111111111111111111111111111111111111",
"11111111111111111111111111111111111111111111111111111111111111111111111111111111111111111111111111111111111111111111111111111111",
"11111111111111111111111111111111111111111111111111111111111111111111111111111111111111111111111111111111111111111111111111111111",
"11111111111111111111111111111111111111111111111111111111111111111111111111111111111111111111111111111111111111111111111111111111",
"11111111111111111111111111111111111111111111111111111111111111111111111111111111111111111111111111111111111111111111111111111111",
"11111111111111111111111111111111111111111111111111111111111111111111111111111111111111111111111111111111111111111111111111111111",
"11111111111111111111111111111111111111111111111111111111111111111111111111111111111111111111111111111111111111111111111111111111",
"11111111111111111111111111111111111111111111111111111111111111111111111111111111111111111111111111111111111111111111111111111111",
"11111111111111111111111111111111111111111111111111111111111111111111111111111111111111111111111111111111111111111111111111111111",
"11111111111111111111111111111111111111111111111111111111111111111111111111111111111111111111111111111111111111111111111111111111",
"11111111111111111111111111111111111111111111111111111111111111111111111111111111111111111111111111111111111111111111111111111111",
"11111111111111111111111111111111111111111111111111111111111111111111111111111111111111111111111111111111111111111111111111111111",
"11111111111111111111111111111111111111111111111111111111111111111111111111111111111111111111111111111111111111111111111111111111",
"11111111111111111111111111111111111111111111111111111111111111111111111111111111111111111111111111111111111111111111111111111111",
"11111111111111111111111111111111111111111111111111111111111111111111111111111111111111111111111111111111111111111111111111111111",
"11111111111111111111111111111111111111111111111111111111111111111111111111111111111111111111111111111111111111111111111111111111",
"11111111111111111111111111111111111111111111111111111111111111111111111111111111111111111111111111111111111111111111111111111111",
"11111111111111111111111111111111111111111111111111111111111111111111111111111111111111111111111111111111111111111111111111111111",
"11111111111111111111111111111111111111111111111111111111111111111111111111111111111111111111111111111111111111111111111111111111",
"11111111111111111111111111111111111111111111111111111111111111111111111111111111111111111111111111111111111111111111111111111111"
};
