/* XPM */
static char *rocks1721524875[] = {
/* columns rows colors chars-per-pixel */
"128 128 57 1 ",
"  c None",
". c #434343",
"X c #4B4B4B",
"o c #4F5050",
"O c #535353",
"+ c #585757",
"@ c #575858",
"# c #5B5B5B",
"$ c #636363",
"% c #676868",
"& c #696969",
"* c #706F6F",
"= c #6F7070",
"- c #737474",
"; c #777878",
": c #7B7C7B",
"> c #7F8080",
", c #4499C5",
"< c #449ECC",
"1 c #848483",
"2 c #888787",
"3 c #898887",
"4 c #878888",
"5 c #8C8C8C",
"6 c #91908F",
"7 c #8F9090",
"8 c #939393",
"9 c #989796",
"0 c #999897",
"q c #979898",
"w c #9C9C9B",
"e c #A1A09F",
"r c #A2A2A2",
"t c #A8A7A7",
"y c #AAA8A7",
"u c #ACACAB",
"i c #B0AFAE",
"p c #B1B0AF",
"a c #B4B3B2",
"s c #B8B7B6",
"d c #BAB8B7",
"f c #BEBCBB",
"g c #C0BFBE",
"h c #C1C0BF",
"j c #C5C3C2",
"k c #C8C7C6",
"l c #CAC8C7",
"z c #CDCBCA",
"x c #D1CFCE",
"c c #D2D0CF",
"v c #D5D3D2",
"b c #D9D7D6",
"n c #DAD8D7",
"m c #DDDBDA",
"M c #EEEEEE",
"N c #F1F1F1",
"B c #FBFBFB",
/* pixels */
"<<<<<<<<<<<<<<<<<<<<<<<<<<<<<<<<<<<<<<<<<<<<<<<<<<<<<<<<<<<<<<<<<<<<<<<<<<<<<<<<<<<<<<<<<<<<<<<<<<<<<<<<<<<<<<<<<<<<<<<<<<<<<<<<",
"<<<<<<<<<<<<<<<<<<<<<<<<<<<<<<<<<<<<<<<<<<<<<<<<<<<<<<<<<<<<<<<<<<<<<<<<<<<<<<<<<<<<<<<<<<<<<<<<<<<<<<<<<<<<<<<<<<<<<<<<<<<<<<<<",
"<<<<<<<<<<<<<<<<<<<<<<<<<<<<<<<<<<<<<<<<<<<<<<<<<<<<<<<<<<<<<<<<<<<<<<<<<<<<<<<<<<<<<<<<<<<<<<<<<<<<<<<<<<<<<<<<<<<<<<<<<<<<<<<<",
"<<<<<<<<<<<<<<<<<<<<<<<<<<<<<<<<<<<<<<<<<<<<<<<<<<<<<<<<<<<<<<<<<<<<<<<<<<<<<<<<<<<<<<<<<<<<<<<<<<<<<<<<<<<<<<<<<<<<<<<<<<<<<<<<",
"<<<<<<<<<<<<<<<<<<<<<<<<<<<<<<<<<<<<<<<<<<<<<<<<<<<<<<<<<<<<<<<<<<<<<<<<<<<<<<<<<<<<<<<<<<<<<<<<<<<<<<<<<<<<<<<<<<<<<<<<<<<<<<<<",
"<<<<<<<<<<<<<<<<<<<<<<<<<<<<<<<<<<<<<<<<<<<<<<<<<<<<<<<<<<<<<<<<<<<<<<<<<<<<<<<<<<<<<<<<<<<<<<<<<<<<<<<<<<<<<<<<<<<<<<<<<<<<<<<<",
"<<<<<<<<<<<<<<<<<<<<<<<<<<<<<<<<<<<<<<<<<<<<<<<<<<<<<<<<<<<<<<<<<<<<<<<<<<<<<<<<<<<<<<<<<<<<<<<<<<<<<<<<<<<<<<<<<<<<<<<<<<<<<<<<",
"<<<<<<<<<<<<<<<<<<<<<<<<<<<<<<<<<<<<<<<<<<<<<<<<<<<<<<<<<<<<<<<<<<<<<<<<<<<<<<<<<<<<<<<<<<<<<<<<<<<<<<<<<<<<<<<<<<<<<<<<<<<<<<<<",
"<<<<<<<<<<<<<<<<<<<<<<<<<<<<<<<<<<<<<<<<<<<<<<<<<<<<<<<<<<<<<<<<<<<<<<<<<<<<<<<<<<<<<<<<<<<<<<<<<<<<<<<<<<<<<<<<<<<<<<<<<<<<<<<<",
"<<<<<<<<<<<<<<<<<<<<<<<<<<<<<<<<<<<<<<<<<<<<<<<<<<<<<<<<<<<<<<<<<<<<<<<<<<<<<<<<<<<<<<<<<<<<<<<<<<<<<<<<<<<<<<<<<<<<<<<<<<<<<<<<",
"<<<<<<<<<<<<<<<<<<<<<<<<<<<<<<<<<<<<<<<<<<<<<<<<<<<<<<<<<<<<<<<<<<<<<<<<<<<<<<<<<<<<<<<<<<<<<<<<<<<<<<<<<<<<<<<<<<<<<<<<<<<<<<<<",
"<<<<<<<<<<<<<<<<<<<<<<<<<<<<<<<<<<<<<<<<<<<<<<<<<<<<<<<<<<<<<<<<<<<<<<<<<<<<<<<<<<<<<<<<<<<<<<<<<<<<<<<<<<<<<<<<<<<<<<<<<<<<<<<<",
"<<<<<<<<<<<<<<<<<<<<<<<<<<<<<<<<<<<<<<<<<<<<<<<<<<<<<<<<<<<<<<<<<<<<<<<<<<<<<<<<<<<<<<<<<<<<<<<<<<<<<<<<<<<<<<<<<<<<<<<<<<<<<<<<",
"<<<<<<<<<<<<<<<<<<<<<<<<<<<<<<<<<<<<<<<<<<<<<<<<<<<<<<<<<<<<<<<<<<<<<<<<<<<<<<<<<<<<<<<<<<<<<<<<<<<<<<<<<<<<<<<<<<<<<<<<<<<<<<<<",
"<<<<<<<<<<<<<<<<<<<<<<<<<<<<<<<<<<<<<<<<<<<<<<<<<<<<<<<<<<<<<<<<<<<<<<<<<<<<<<<<<<<<<<<<<<<<<<<<<<<<<<<<<<<<<<<<<<<<<<<<<<<<<<<<",
"<<<<<<<<<<<<<<<<<<<<<<<<<<<<<<<<<<<<<<<<<<<<<<<<<<<<<<<<<<<<<<<<<<<<<<<<<<<<<<<<<<<<<<<<<<<<<<<<<<<<<<<<<<<<<<<<<<<<<<<<<<<<<<<<",
"<<<<<<<<<<<<<<<<<<<<<<<<<<<<<<<<<<<<<<<<<<<<<<<<<<<<<<<<<<<<<<<<<<<<<<<<<<<<<<<<<<<<<<<<<<<<<<<<<<<<<<<<<<<<<<<<<<<<<<<<<<<<<<<<",
"<<<<<<<<<<<<<<<<<<<<<<<<<<<<<<<<<<<<<<<<<<<<<<<<<<<<<<<<<<<<<<<<<<<<<<<<<<<<<<<<<<<<<<<<<<<<<<<<<<<<<<<<<<<<<<<<<<<<<<<<<<<<<<<<",
"<<<<<<<<<<<<<<<<<<<<<<<<<<<<<<<<<<<<<<<<<<<<<<<<<<<<<<<<<<<<<<<<<<<<<<<<<<<<<<<<<<<<<<<<<<<<<<<<<<<<<<<<<<<<<<<<<<<<<<<<<<<<<<<<",
"<<<<<<<<<<<<<<<<<<<<<<<<<<<<<<<<<<<<<<<<<<<<<<<<<<<<<<<<<<<<<<<<<<<<<<<<<<<<<<<<<<<<<<<<<<<<<<<<<<<<<<<<<<<<<<<<<<<<<<<<<<<<<<<<",
"<<<<<<<<<<<<<<<<<<<<<<<<<<<<<<<<<<<<<<<<<<<<<<<<<<<<<<<<<<<<<<<<<<<<<<<<<<<<<<<<<<<<<<<<<<<<<<<<<<<<<<<<<<<<<<<<<<<<<<<<<<<<<<<<",
"<<<<<<<<<<<<<<<<<<<<<<<<<<<<<<<<<<<<<<<<<<<<<<<<<<<<<<<<<<<<<<<<<<<<<<<<<<<<<<<<<<<<<<<<<<<<<<<<<<<<<<<<<<<<<<<<<<<<<<<<<<<<<<<<",
"<<<<<<<<<<<<<<<<<<<<<<<<<<<<<<<<<<<<<<<<<<<<<<<<<<<<<<<<<<<<<<<<<<<<<<<<<<<<<<<<<<<<<<<<<<<<<<<<<<<<<<<<<<<<<<<<<<<<<<<<<<<<<<<<",
"<<<<<<<<<<<<<<<<<<<<<<<<<<<<<<<<<<<<<<<<<<<<<<<<<<<<<<<<<<<<<<<<<<<<<<<<<<<<<<<<<<<<<<<<<<<<<<<<<<<<<<<<<<<<<<<<<<<<<<<<<<<<<<<<",
"<<<<<<<<<<<<<<<<<<<<<<<<<<<<<<<<<<<<<<<<<<<<<<<<<<<<<<<<<<<<<<<<<<<<<<<<<<<<<<<<<<<<<<<<<<<<<<<<<<<<<<<<<<<<<<<<<<<<<<<<<<<<<<<<",
"<<<<<<<<<<<<<<<<<<<<<<<<<<<<<<<<<<<<<<<<<<<<<<<<<<<<<<<<<<<<<<<<<<<<<<<<<<<<<<<<<<<<<<<<<<<<<<<<<<<<<<<<<<<<<<<<<<<<<<<<<<<<<<<<",
"<<<<<<<<<<<<<<<<<<<<<<<<<<<<<<<<<<<<<<<<<<<<<<<<<<<<<<<<<<<<<<<<<<<<<<<<<<<<<<<<<<<<<<<<<<<<<<<<<<<<<<<<<<<<<<<<<<<<<<<<<<<<<<<<",
"<<<<<<<<<<<<<<<<<<<<<<<<<<<<<<<<<<<<<<<<<<<<<<<<<<<<<<<<<<<<<<<<<<<<<<<<<<<<<<<<<<<<<<<<<<<<<<<<<<<<<<<<<<<<<<<<<<<<<<<<<<<<<<<<",
"<<<<<<<<<<<<<<<<<<<<<<<<<<<<<<<<<<<<<<<<<<<<<<<<<<<<<<<<<<<<<<<<<<<<<<<<<<<<<<<<<<<<<<<<<<<<<<<<<<<<<<<<<<<<<<<<<<<<<<<<<<<<<<<<",
"<<<<<<<<<<<<<<<<<<<<<<<<<<<<<<<<<<<<<<<<<<<<<<<<<<<<<<<<<<<<<<<<<<<<<<<<<<<<<<<<<<<<<<<<<<<<<<<<<<<<<<<<<<<<<<<<<<<<<<<<<<<<<<<<",
"<<<<<<<<<<<<<<<<<<<<<<<<<<<<<<<<<<<<<<<<<<<<<<<<<<<<<<<<<<<<<<<<<<<<<<<<<<<<<<<<<<<<<<<<<<<<<<<<<<<<<<<<<<<<<<<<<<<<<<<<<<<<<<<<",
"<<<<<<<<<<<<<<<<<<<<<<<<<<<<<<<<<<<<<<<<<<<<<<<<<<<<<<<<<<<<<<<<<<<<<<<<<<<<<<<<<<<<<<<<<<<<<<<<<<<<<<<<<<<<<<<<<<<<<<<<<<<<<<<<",
"<<<<<<<<<<<<<<<<<<<<<<<<<<<<<<<<<<<<<<<<<<<<<<<<<<<<<<<<<<<<<<<<<<<<<<<<<<<<<<<<<<<<<<<<<<<<<<<<<<<<<<<<<<<<<<<<<<<<<<<<<<<<<<<<",
"<<<<<<<<<<<<<<<<<<<<<<<<<<<<<<<<<<<<<<<<<<<<<<<<<<<<<<<<<<<<<<<<<<<<<<<<<<<<<<<<<<<<<<<<<<<<<<<<<<<<<<<<<<<<<<<<<<<<<<<<<<<<<<<<",
"<<<<<<<<<<<<<<<<<<<<<<<<<<<<<<<<<<<<<<<<<<<<<<<<<<<<<<<<<<<<<<<<<<<<<<<<<<<<<<<<<<<<<<<<<<<<<<<<<<<<<<<<<<<<<<<<<<<<<<<<<<<<<<<<",
"<<<<<<<<<<<<<<<<<<<<<<<<<<<<<<<<<<<<<<<<<<<<<<<<<<<<<<<<<<<<<<<<<<<<<<<<<<<<<<<<<<<<<<<<<<<<<<<<<<<<<<<<<<<<<<<<<<<<<<<<<<<<<<<<",
"<<<<<<<<<<<<<<<<<<<<<<<<<<<<<<<<<<<<<<<<<<<<<<<<<<<<<<<<<<<<<<<<<<<<<<<<<<<<<<<<<<<<<<<<<<<<<<<<<<<<<<<<<<<<<<<<<<<<<<<<<<<<<<<<",
"<<<<<<<<<<<<<<<<<<<<<<<<<<<<<<<<<<<<<<<<<<<<<<<<<<<<<<<<<<<<<<<<<<<<<<<<<<<<<<<<<<<<<<<<<<<<<<<<<<<<<<<<<<<<<<<<<<<<<<<<<<<<<<<<",
"<<<<<<<<<<<<<<<<<<<<<<<<<<<<<<<<<<<<<<<<<<<<<<<<<<<<<<<<<<<<<<<<<<<<<<<<<<<<<<<<<<<<<<<<<<<<<<<<<<<<<<<<<<<<<<<<<<<<<<<<<<<<<<<<",
"<<<<<<<<<<<<<<<<<<<<<<<<<<<<<<<<<<<<<<<<<<<<<<<<<<<<<<<<<<<<<<<<<<<<<<<<<<<<<<<<<<<<<<<<<<<<<<<<<<<<<<<<<<<<<<<<<<<<<<<<<<<<<<<<",
"<<<<<<<<<<<<<<<<<<<<<<<<<<<<<<<<<<<<<<<<<<<<<<<<<<<<<<<<<<<<<<<<<<<<<<<<<<<<<<<<<<<<<<<<<<<<<<<<<<<<<<<<<<<<<<<<<<<<<<<<<<<<<<<<",
"<<<<<<<<<<<<<<<<<<<<<<<<<<<<<<<<<<<<<<<<<<<<<<<<<<<<<<<<<<<<<<<<<<<<<<<<<<<<<<<<<<<<<<<<<<<<<<<<<<<<<<<<<<<<<<<<<<<<<<<<<<<<<<<<",
"<<<<<<<<<<<<<<<<<<<<<<<<<<<<<<<<<<<<<<<<<<<<<<<<<<<<<<<<<<<<<<<<<<<<<<<<<<<<<<<<<<<<<< <<<<<<<<<<<<<<<<<<<<<<<<<<<<<<<<<<<<<<<<<",
"<<<<<<<<<<<<<<<<<<<<<<<<<<<<<<<<<<<<<<<<<<<<<   <<<<<<<<<<<<<<<<<<<<<<<<<<<<<<<<<<<<< # <<<<<<<<<<<<<<<<<<<<<<<<<<<<<<<<<<<<<<<<",
"<<<<<<<<<<<<<<<<<<<<<<<  <<<<<<<<<<<<<<<<<<< #X <<<<<<<<<<<<<<<<<<<<<<<<<<<<<<<<<<<< -8# <<<<<<<<<<<<<<<<<<<<<<<<<<<<<<<<<<<<<<<",
"<<<<<<<<<<<<<<<<<<<<<< $$ ,<<<<<<<<<<<<<<<<<.2:$ <<<<<<<<<<<<<<<<<<<<<<<<<<<<<<<<<< -tyw$ <<<<<<<<<<<<<<<<<<<<<<<<<<<<<<<<<<<<<<",
"<<<<<<<<<<<<<<<<<<<<<<.8r% <<<<<<<<<<<<<<<<<O4r: <<<<<<<<<<<<<<<<<< <<<<<<<<<<<<<< -ygsr9O,<<<<< <<<<<<<<<<<<<<<<<<<<<<<<<<<<<<<",
"<<<<<<<<<<<<<<<<<<<<<<.ry& <<<<<<<<<<<<<<<<.2rr2+<<<<<<<<<<<<<<<<<O++ <<<<<<<<<<< -ujnfrr9# <<< @ <<<<<<<<<<<<<<<<<<<<<<<<<<<<<<",
"<<<<<<<<<<<<<<<<<<<<< %yur; <<<<<<<<<<<<<< $euer: <<<<<<<<<<<<<<< 1r6#  <<<<<<<< $tflmbsrr8# <<Ow# <<<<<<<<<<<<<<<<<<<<<<<<<<<<<",
"<<<<<<<<<<<<<<<<<<<<<.igyrr= <<<<<<<<<<<<<.8firr; <<<<<<<<<<<<<< -rrr2..<<<<<<<< $ylmmvsrrrw.< #rr.<<<<<<<<<<<<<<<<<<<<<<<<<<<<<",
"<<<<<<<<<<<<<<<<<<<<,.idftrr& <<<<<<<<<<<<o8fiee: <<<<<<<<<<<<<< 1ffarw*.<<<<<<< %ujmmvferrw. ofdrX<<,X<<<<<<<<<<<<<<<<<<<<<<<<<",
"<<<<<<<<<<<<<<<<<<<<,+igfurrr&X <<<<<<<<,.efffit> <<<<<OO<<<<<<< 2fggae5.<<<<<< X5xujmvdrrav. $fsrrO .wO <<<<<<<<<<<<<<<<<<<<<<<",
"<<<<<<<<<<<<<<<<<<<<.ugfffitry:@ <<<<<<<,#rffffxe <<<< >:.<<<<<< 5zvgat6o <<<<< X2lpgncgrrakX;ffsrrw.#rw.<<<<<<<<<<<<<<<<<<<<<<<",
"<<<<<<<<<<<<<<<<<<<<.uffffffucdr% <<<<<<.wgffffze <<<< 65.<<<<< >gzmxgs0*.<<<<< X%6zyjvdrij.$fffdrrw@rrw.<<<<<<<<<<<<<<<<<<<<<<<",
"<<<<<<<<<<<<<<<<<<<<.jjgffffvprr% <<<<<<.ilffgch: <<..5gp2.<<<< >zmmmxga4.<<<<< X%6xtjvdriz:$ffgsrrw#rrw.<<<<<<<<<<<<<<<<<<<<<<<",
"<<<<<<<<<<<<<< <<<<<.$lbjggvarrrr- <<<<.#;fzgxli: <<.2gfu2.<<<< >zmmmxga5.<<<< O%%6ztjvgriz:*vgsrrwOrrrw.<<<<<<<<<<<<<<<<<<<<<<<",
"<<<<<<<<<<<<<<% <<<<.;&%lmlvarrrr- <<<<.#-1azxdr; <<.wcfp2.<<<< 1zmmmvfd5.<<<< O%%6xyjxeril:X2nrrreOrrrw.<<<<<<<<<<<<<<<<<<<<<<<",
"<<<<<<<<<<<<<<$ <<<<<.;>--gmarrrr- <<<<.#;>smzir: < #rxfi2.<<<< 1lmmmmva9%.<<< O%%&0vrreuxe:X>grrrOrdrrw.<<<<<<<<<<<<<<<<<<<<<<<",
"<<<<<<<<<<<<<<% <<<<<.;:>>-jarrrr- <<<..#;>azfur: < #%uzu1.<<<< >lmmmxar9&.<<< O%%&8vrygux>:X%-dqXrfffrw.<<<<<<<<<<<<<<<<<<<<<<<",
"<<<<<<<<<<<<<<% <<<<<.XX-:-garrrrr- <<.#%;>dzfur: < %;yjr2.<<< Owxlmxarr9&.<< X%%%&%2xeriz>;X%*sq.ggbfdrrX<<<<<<<<<<<<<<<<<<<<<<",
"<<<<<<<<<<<<<<f# <<<<.qr%--garafyr- <<.#-1>azgur; < %-yzp2.<<< O%rxgarrr9%.<< X%%%&&1vryvw-o:%%;i.fgbffrr.<<<<<<<<<<<<<<<<<<<<<<",
"<<<<<<<<<<<<<<fs* <<.8wr%-*jaaffyr- <<.$->>szfu8%  +-1:af2.<<< O%*yzrrrrr8-.< o%%%%%&8zuvw-X>:%&*XgmbffrrX<<<<<<<<<<<<<<<<<<<<<<",
"<<<<<<<<<<<<<<ff- <.5rrr%--jasffyr- <<.#;>fzgfu8$  +->-ug1.<<< o%%*wlrrrqyg.< o*>:%%:ienbw-o>>:$.Xhmbffrr.<<<<<<<<<<<<<<<<<<<<<<",
"<<<<<<<<<<<<<<jf* .5rrrr%--gadffgue& <.#%;hzffu8%  #-1>;ai.<<< O*;%0jrrwtl8. o&>>>:%:a>8vw-X>>>%.XBmbfdrrX<<<<<<<<<<<<<<<<<<<<<<",
"<<<<<<<<<<<<<<jvt$7eerrr%-*jasgdgue* <.$%&flataq#  @;>>-aa.<<<, $;%-thrwtg;. X-:>>:%:a95vw-X>>>%.XBjbgdtvX<<<<<<<<<<<<<<<<<<<<<<",
"<<<<<<<<<<<<<<zar$jirrrr%--jaaggfir& ,..#%fxiea9+.+=>>>-aa.<<<< O--%*tjrj9$..X&1>>:%:sw6vw;X>>&$X&Bgbgtx7X<<<<<<<<<<<<<<<<<<<<<<",
"<<<<<<<<<<<<<<irr;;jirr-$;*haragfure ...#%djadi2O.+->>>-pa.<<<< O->;%*wg98#..X->>>:2ar06vw-X*:%$X&Bggrv5>.<<<<<<<<<<<<<<<<<<<<<<",
"<<<<<<<<<<<<<<ee-%%jarr&$:-jaadffirr>...+ukgsge:+.@->>>;ai.<<<< O*>;%%8zw5$.o%:>>>:2ge08vw-X&:%XX%rMgxww>.<<<<<<<<<<<<<<<<<<<<<<",
"<<<<<<<<<<<<<<wr$$%jaer&$:*hasgffdue;..#%dlggi1&O.@->>>-aa.<<<< O->;%0gwr5$.O=>>>:&2srw7vw-X%*%.X%;Bimww>.<<<<<<<<<<<<<<<<<<<<<<",
"<<<<<<<<<<<<<<;w%$%haer&#:-jasffffie;..#%dkgdi1#.@%->:>-ai.<<<< O*>:&3r58%X.O&>>>:&2drizuw-.o%%.X%;Bxurre.<<<<<<<<<<<<<<<<<<<<<<",
"<<<<<<<<<<<<<<**o$%:kir&$:*hasdgffue;..#%sjgdi1+.#%%;1;tg4.<<< .O->;&1re8#..+&>>>:%2drabrw-..o%.$%-mtrrrr:.<<<<<<<<<<<<<<<<<<<<<",
"<<<<<<<<<<<<<<&o#%%%lie%$;-jasgdggdt5#.#%dkggi1+.#%%-1-ug2.<< -8>$>;:66r8#.X%:>>>:%2sravw2%..X$X%%-brrre2>.<<<<<<<<<<<<<<<<<<<<<",
"<<<<<<<<<<<<<<&X$%;:2ji&$;*hasggffgy6$.#ykggdu1+.#%&&-;ig1.< 1tr4@*&>94r4X.X->>>:*%2a4rvw:$...XX%%-Nrrre>:.<<<<<<<<<<<<<<<<<<<<<",
"<<<<<<<<<<<<<<&X$%:>*li&$::2jaafffftw-.#alggir1++%%%&&egt2. *8ri5O%%>94w:@.O-:>>:%%8vxkuw;$....X:%-merre>>.<<<<<<<<<<<<<<<<<<<<<",
"<<<<<<<<<<<<<<%.#&:>*zi&$&:*kiaffffsu-.Xildgir1+#%%%&%ygr4. $44eqO%;78wq-X.#;>>:*%-8wwtke:#....o>%-brrre9>.<<<<<<<<<<<<<<<<<<<<<",
"<<<<<<<<<<<<<<%X$->>;6j1X$*&kiagfausu2#.ikggi8-+#%%%%%yjr4. $>57&O%:97rw&.X&>>1;%-7;%%>aw:$....-:&&elrrrr>.<<<<<<<<<<<<<<<<<<<<<",
"<<<<<<<<<<<<<<+#%:>>>*z5.$%%lpafgurai7$.ikddi2&++%&%&9gur1. #52#.O&>www4-.X->>:&=8>%&%;rw:$...X>:%&>Mrrer>.<<<<<<<<<<<<<<<<<<<<<",
"<<<<<<<<<<<<<<X$%;>>>*z2.X$$kiaffddur8#.egggi1&+#%%%%tjer2. O2q+.O>88rw:$.X*>>:&;q**;%;e4=$...X:>%&:mrrrr>.<<<<<<<<<<<<<<<<<<<<<",
"<<<<<<<<<<<<<<.%%:>>;&za$.#%0ragfffdu7#.>igfi1#X+&%&%tjer2.  -2$.X:q5rw;#.X-1:--84;;:%;e:%#...X>:%%-srrrr>.<<<<<<<<<<<<<<<<<<<<<",
"<<<<<<<<<<<<<<.$%:>>*akh*.$%:wagffffu7&X&tdgi1O.+&%%%tjrr4. .$-#..;95w4%XX%;>:%-4>>>>;;e:$o....>:%&*e5rer>.<<<<<<<<<<<<<<<<<<<<<",
"<<<<<<<<<<<<<<.%&:>>*zhg*.X$:wtsfffar8-O%5afu1$O#&&%efurr1...#;%+.%6w9;$.O*>;*-7>>48>:;w:$...o->:&%*e>rrr>.<<<<<<<<<<<<<<<<<<<<<",
"<<<<<<<<<<<<<<O%%*:>*zhg*..$;weafffur7=o&>yaw-#X+&%%tfrrr2...$-&#.$5rq-o.O*>;=55>1qe8:1e:=...O>>:%&*e>rrr8.<<<<<<<<<<<<<<<<<<<<<",
"<<<<<<<<<<<<<<$%%&:>&zhg-..#:wrafffur5&O&>88-%O.#&&&warrr7#..$-%#.$5w2-..O*>;;q>1qrrw>4r8;...O>>>%%*w>7rr5&.<<<<<<<<<<<<<<<<<<<<",
"<<<<<<<<<<<<<<$%%&**&xhg-..X-5wsfffyr7-o+--&%#X.X#%&waeq52&..o$%#.$5q;%..X$:>752qrrrr8>7w-...O>>:%&&;q>7r>:.<<<<<<<<<<<<<<<<<<<<",
"<<<<<<<<<<<<<<$%%&$&%zjf-...*>5tdfarr7=O.%&%%+...#&&waw4>;@...#*o.$25;$...O&*62qrrrrrw>>7;...o%>:&%O#r>1r1:.<<<<<<<<<<<<<<<<<<<<",
"<<<<<<<<<<<<<<O%%&&&rkhfe#..->>0dfurq4-X.#%%#X...o#*>1:>-+....$*..O&:%o...X%>1qerrrrrw>>>-.....%-%O.+r>>7>>.<<<<<<<<<<<<<<<<<<<<",
"<<<<<<<<<<<<<<.O$%%%ljff9+..->>wuut94-$X.X+OX.....X&%.O$O.....o#...o$#.....&q2rrrrrrrw>>$#......OO..X->>>>$.<<<<<<<<<<<<<<<<<<<<",
"<<<<<<<<<<<<<<..o+$%lj61#...->>3577:-$X............OO...............XX.....O1qrrrrrrw:$#..............$$$#..<<<<<<<<<<<<<<<<<<<<",
"<<<<<<<<<<<<<<....++w8+.....$%%%%%%#+X......................................#>>>>>>>;O......................<<<<<<<<<<<<<<<<<<<<",
"<<<<<<<<<<<<<<<<<<<<<<<<<<<<<<<<<<<<<<<<<<<<<<<<<<<<<<<<<<<<<<<<<<<<<<<<<<<<<<<<<<<<<<<<<<<<<<<<<<<<<<<<<<<<<<<<<<<<<<<<<<<<<<<<",
"<<<<<<<<<<<<<<<<<<<<<<<<<<<<<<<<<<<<<<<<<<<<<<<<<<<<<<<<<<<<<<<<<<<<<<<<<<<<<<<<<<<<<<<<<<<<<<<<<<<<<<<<<<<<<<<<<<<<<<<<<<<<<<<<",
"<<<<<<<<<<<<<<<<<<<<<<<<<<<<<<<<<<<<<<<<<<<<<<<<<<<<<<<<<<<<<<<<<<<<<<<<<<<<<<<<<<<<<<<<<<<<<<<<<<<<<<<<<<<<<<<<<<<<<<<<<<<<<<<<",
"<<<<<<<<<<<<<<<<<<<<<<<<<<<<<<<<<<<<<<<<<<<<<<<<<<<<<<<<<<<<<<<<<<<<<<<<<<<<<<<<<<<<<<<<<<<<<<<<<<<<<<<<<<<<<<<<<<<<<<<<<<<<<<<<",
"<<<<<<<<<<<<<<<<<<<<<<<<<<<<<<<<<<<<<<<<<<<<<<<<<<<<<<<<<<<<<<<<<<<<<<<<<<<<<<<<<<<<<<<<<<<<<<<<<<<<<<<<<<<<<<<<<<<<<<<<<<<<<<<<",
"<<<<<<<<<<<<<<<<<<<<<<<<<<<<<<<<<<<<<<<<<<<<<<<<<<<<<<<<<<<<<<<<<<<<<<<<<<<<<<<<<<<<<<<<<<<<<<<<<<<<<<<<<<<<<<<<<<<<<<<<<<<<<<<<",
"<<<<<<<<<<<<<<<<<<<<<<<<<<<<<<<<<<<<<<<<<<<<<<<<<<<<<<<<<<<<<<<<<<<<<<<<<<<<<<<<<<<<<<<<<<<<<<<<<<<<<<<<<<<<<<<<<<<<<<<<<<<<<<<<",
"<<<<<<<<<<<<<<<<<<<<<<<<<<<<<<<<<<<<<<<<<<<<<<<<<<<<<<<<<<<<<<<<<<<<<<<<<<<<<<<<<<<<<<<<<<<<<<<<<<<<<<<<<<<<<<<<<<<<<<<<<<<<<<<<",
"<<<<<<<<<<<<<<<<<<<<<<<<<<<<<<<<<<<<<<<<<<<<<<<<<<<<<<<<<<<<<<<<<<<<<<<<<<<<<<<<<<<<<<<<<<<<<<<<<<<<<<<<<<<<<<<<<<<<<<<<<<<<<<<<",
"<<<<<<<<<<<<<<<<<<<<<<<<<<<<<<<<<<<<<<<<<<<<<<<<<<<<<<<<<<<<<<<<<<<<<<<<<<<<<<<<<<<<<<<<<<<<<<<<<<<<<<<<<<<<<<<<<<<<<<<<<<<<<<<<",
"<<<<<<<<<<<<<<<<<<<<<<<<<<<<<<<<<<<<<<<<<<<<<<<<<<<<<<<<<<<<<<<<<<<<<<<<<<<<<<<<<<<<<<<<<<<<<<<<<<<<<<<<<<<<<<<<<<<<<<<<<<<<<<<<",
"<<<<<<<<<<<<<<<<<<<<<<<<<<<<<<<<<<<<<<<<<<<<<<<<<<<<<<<<<<<<<<<<<<<<<<<<<<<<<<<<<<<<<<<<<<<<<<<<<<<<<<<<<<<<<<<<<<<<<<<<<<<<<<<<",
"<<<<<<<<<<<<<<<<<<<<<<<<<<<<<<<<<<<<<<<<<<<<<<<<<<<<<<<<<<<<<<<<<<<<<<<<<<<<<<<<<<<<<<<<<<<<<<<<<<<<<<<<<<<<<<<<<<<<<<<<<<<<<<<<",
"<<<<<<<<<<<<<<<<<<<<<<<<<<<<<<<<<<<<<<<<<<<<<<<<<<<<<<<<<<<<<<<<<<<<<<<<<<<<<<<<<<<<<<<<<<<<<<<<<<<<<<<<<<<<<<<<<<<<<<<<<<<<<<<<",
"<<<<<<<<<<<<<<<<<<<<<<<<<<<<<<<<<<<<<<<<<<<<<<<<<<<<<<<<<<<<<<<<<<<<<<<<<<<<<<<<<<<<<<<<<<<<<<<<<<<<<<<<<<<<<<<<<<<<<<<<<<<<<<<<",
"<<<<<<<<<<<<<<<<<<<<<<<<<<<<<<<<<<<<<<<<<<<<<<<<<<<<<<<<<<<<<<<<<<<<<<<<<<<<<<<<<<<<<<<<<<<<<<<<<<<<<<<<<<<<<<<<<<<<<<<<<<<<<<<<",
"<<<<<<<<<<<<<<<<<<<<<<<<<<<<<<<<<<<<<<<<<<<<<<<<<<<<<<<<<<<<<<<<<<<<<<<<<<<<<<<<<<<<<<<<<<<<<<<<<<<<<<<<<<<<<<<<<<<<<<<<<<<<<<<<",
"<<<<<<<<<<<<<<<<<<<<<<<<<<<<<<<<<<<<<<<<<<<<<<<<<<<<<<<<<<<<<<<<<<<<<<<<<<<<<<<<<<<<<<<<<<<<<<<<<<<<<<<<<<<<<<<<<<<<<<<<<<<<<<<<",
"<<<<<<<<<<<<<<<<<<<<<<<<<<<<<<<<<<<<<<<<<<<<<<<<<<<<<<<<<<<<<<<<<<<<<<<<<<<<<<<<<<<<<<<<<<<<<<<<<<<<<<<<<<<<<<<<<<<<<<<<<<<<<<<<",
"<<<<<<<<<<<<<<<<<<<<<<<<<<<<<<<<<<<<<<<<<<<<<<<<<<<<<<<<<<<<<<<<<<<<<<<<<<<<<<<<<<<<<<<<<<<<<<<<<<<<<<<<<<<<<<<<<<<<<<<<<<<<<<<<",
"<<<<<<<<<<<<<<<<<<<<<<<<<<<<<<<<<<<<<<<<<<<<<<<<<<<<<<<<<<<<<<<<<<<<<<<<<<<<<<<<<<<<<<<<<<<<<<<<<<<<<<<<<<<<<<<<<<<<<<<<<<<<<<<<",
"<<<<<<<<<<<<<<<<<<<<<<<<<<<<<<<<<<<<<<<<<<<<<<<<<<<<<<<<<<<<<<<<<<<<<<<<<<<<<<<<<<<<<<<<<<<<<<<<<<<<<<<<<<<<<<<<<<<<<<<<<<<<<<<<",
"<<<<<<<<<<<<<<<<<<<<<<<<<<<<<<<<<<<<<<<<<<<<<<<<<<<<<<<<<<<<<<<<<<<<<<<<<<<<<<<<<<<<<<<<<<<<<<<<<<<<<<<<<<<<<<<<<<<<<<<<<<<<<<<<",
"<<<<<<<<<<<<<<<<<<<<<<<<<<<<<<<<<<<<<<<<<<<<<<<<<<<<<<<<<<<<<<<<<<<<<<<<<<<<<<<<<<<<<<<<<<<<<<<<<<<<<<<<<<<<<<<<<<<<<<<<<<<<<<<<",
"<<<<<<<<<<<<<<<<<<<<<<<<<<<<<<<<<<<<<<<<<<<<<<<<<<<<<<<<<<<<<<<<<<<<<<<<<<<<<<<<<<<<<<<<<<<<<<<<<<<<<<<<<<<<<<<<<<<<<<<<<<<<<<<<",
"<<<<<<<<<<<<<<<<<<<<<<<<<<<<<<<<<<<<<<<<<<<<<<<<<<<<<<<<<<<<<<<<<<<<<<<<<<<<<<<<<<<<<<<<<<<<<<<<<<<<<<<<<<<<<<<<<<<<<<<<<<<<<<<<",
"<<<<<<<<<<<<<<<<<<<<<<<<<<<<<<<<<<<<<<<<<<<<<<<<<<<<<<<<<<<<<<<<<<<<<<<<<<<<<<<<<<<<<<<<<<<<<<<<<<<<<<<<<<<<<<<<<<<<<<<<<<<<<<<<",
"<<<<<<<<<<<<<<<<<<<<<<<<<<<<<<<<<<<<<<<<<<<<<<<<<<<<<<<<<<<<<<<<<<<<<<<<<<<<<<<<<<<<<<<<<<<<<<<<<<<<<<<<<<<<<<<<<<<<<<<<<<<<<<<<",
"<<<<<<<<<<<<<<<<<<<<<<<<<<<<<<<<<<<<<<<<<<<<<<<<<<<<<<<<<<<<<<<<<<<<<<<<<<<<<<<<<<<<<<<<<<<<<<<<<<<<<<<<<<<<<<<<<<<<<<<<<<<<<<<<",
"<<<<<<<<<<<<<<<<<<<<<<<<<<<<<<<<<<<<<<<<<<<<<<<<<<<<<<<<<<<<<<<<<<<<<<<<<<<<<<<<<<<<<<<<<<<<<<<<<<<<<<<<<<<<<<<<<<<<<<<<<<<<<<<<",
"<<<<<<<<<<<<<<<<<<<<<<<<<<<<<<<<<<<<<<<<<<<<<<<<<<<<<<<<<<<<<<<<<<<<<<<<<<<<<<<<<<<<<<<<<<<<<<<<<<<<<<<<<<<<<<<<<<<<<<<<<<<<<<<<",
"<<<<<<<<<<<<<<<<<<<<<<<<<<<<<<<<<<<<<<<<<<<<<<<<<<<<<<<<<<<<<<<<<<<<<<<<<<<<<<<<<<<<<<<<<<<<<<<<<<<<<<<<<<<<<<<<<<<<<<<<<<<<<<<<",
"<<<<<<<<<<<<<<<<<<<<<<<<<<<<<<<<<<<<<<<<<<<<<<<<<<<<<<<<<<<<<<<<<<<<<<<<<<<<<<<<<<<<<<<<<<<<<<<<<<<<<<<<<<<<<<<<<<<<<<<<<<<<<<<<",
"<<<<<<<<<<<<<<<<<<<<<<<<<<<<<<<<<<<<<<<<<<<<<<<<<<<<<<<<<<<<<<<<<<<<<<<<<<<<<<<<<<<<<<<<<<<<<<<<<<<<<<<<<<<<<<<<<<<<<<<<<<<<<<<<",
"<<<<<<<<<<<<<<<<<<<<<<<<<<<<<<<<<<<<<<<<<<<<<<<<<<<<<<<<<<<<<<<<<<<<<<<<<<<<<<<<<<<<<<<<<<<<<<<<<<<<<<<<<<<<<<<<<<<<<<<<<<<<<<<<",
"<<<<<<<<<<<<<<<<<<<<<<<<<<<<<<<<<<<<<<<<<<<<<<<<<<<<<<<<<<<<<<<<<<<<<<<<<<<<<<<<<<<<<<<<<<<<<<<<<<<<<<<<<<<<<<<<<<<<<<<<<<<<<<<<",
"<<<<<<<<<<<<<<<<<<<<<<<<<<<<<<<<<<<<<<<<<<<<<<<<<<<<<<<<<<<<<<<<<<<<<<<<<<<<<<<<<<<<<<<<<<<<<<<<<<<<<<<<<<<<<<<<<<<<<<<<<<<<<<<<",
"<<<<<<<<<<<<<<<<<<<<<<<<<<<<<<<<<<<<<<<<<<<<<<<<<<<<<<<<<<<<<<<<<<<<<<<<<<<<<<<<<<<<<<<<<<<<<<<<<<<<<<<<<<<<<<<<<<<<<<<<<<<<<<<<",
"<<<<<<<<<<<<<<<<<<<<<<<<<<<<<<<<<<<<<<<<<<<<<<<<<<<<<<<<<<<<<<<<<<<<<<<<<<<<<<<<<<<<<<<<<<<<<<<<<<<<<<<<<<<<<<<<<<<<<<<<<<<<<<<<"
};
