/* XPM */
static char *b33f06fbdb14443a9e7031db959cb97d[] = {
/* columns rows colors chars-per-pixel */
"32 32 42 1 ",
"  c #3C3E5D",
". c #3C3F62",
"X c #3B3E6B",
"o c #3C3F6B",
"O c #393D6E",
"+ c #3C3F6F",
"@ c #373A72",
"# c #363A77",
"$ c #3B3E73",
"% c #3B3F76",
"& c #363A79",
"* c #373C7B",
"= c #373C7F",
"- c #3F414F",
"; c #3E4057",
": c #3F405A",
"> c #3E405D",
", c #3E4060",
"< c #3E4067",
"1 c #3D406A",
"2 c #3D406F",
"3 c #3C4073",
"4 c #464646",
"5 c #41424A",
"6 c #40414D",
"7 c #43444F",
"8 c #44454E",
"9 c #484848",
"0 c #414251",
"q c #434452",
"w c #414357",
"e c #414358",
"r c #41435C",
"t c #42445F",
"y c #333887",
"u c #30368E",
"i c #333889",
"p c #32388C",
"a c #2F3699",
"s c #303694",
"d c #333991",
"f c #313896",
/* pixels */
">.>.<444444444444446;<444444446e",
"aaaa&:;;-4447;;;;<daa&:;;;-442aa",
"aaaaaaaa&:44$aaaaaaaaaaaaa&44Ofa",
"aaaaaaaaa&44Ofaaaaaaaaaaaa&o44$a",
"aaaaaaaaa&o44$aaaaaaaaaaaaa&44Of",
"aaaaaaaaaa&44+faaaaaaaaaaaa@.44$",
"aaaauuuuuu&444$aaaauuuuuauu%.442",
"uuuu%$$$$XO;44ouuuuO$$$Xi2$44444",
"%$$$4444444849:$$$$4444444446044",
"444446;;;4449444444446;4444+a&44",
":;;<daaa&:4446;;;;;<da&:;<daa&o4",
"aaaaaaaaa&441faaaaaaaaaaaaaaaaO4",
"aaaaaaaaa&444$aaaaaaaaaaaaaaaa&4",
"aaaaaaaaa&:44$aaaaaaaaaaaaaaaa&4",
"aaaaaaaaaa&44#faaaaaaaaaaaaaaa&4",
"aaaaaaaaaay*44+faaaaaaaaaaaaaa&4",
"aaaaaaaaaaa&444$aaaaaaaaaaaaaa&4",
"aaaaaaaaaaa&:44Ofaaaaaaaaaaaaa&4",
"aaaaauuuaaaa&o44$uuaaaaaaaaaaa&4",
"aauuu%$$ipaaa&44oOOipuuuuuaaaa@4",
"uu%$$4444:ipu@44>444t$$$$Xipuu>4",
"$$44446<444e+,w444444444444t$$44",
"4446<da&:444444445;;;;;;;4444444",
";<daaaaa&:;4445q44+faaaa&:;;;-44",
"aaaaaaaaaa&:<da&444$aaaaaaaaa&44",
"aaaaaaaaaaaaaaa@q49$aaaaaaaaa&44",
"aaaaaaaaaaaaaaa$49Xaaaaaaaaaa&44",
"aaauuaaaaaaaaaa444$aaaaaaauuu@;4",
"uuuO$iduaaaaaa&44XaauuuuuuO$$$:4",
"$$$444<3yduuus@44Xiu%$$$$$444444",
"444444444<$$$=,e44r$444444446;;4",
"46;<%,.<44444444444446;;;;<daa 8"
};
