/* XPM */
static char *_31dafc93080447aa3ac589de84a184a[] = {
/* columns rows colors chars-per-pixel */
"32 32 42 1 ",
"  c #3C3E5D",
". c #3E3F61",
"X c #3A3D69",
"o c #3C3F6B",
"O c #3B3E6F",
"+ c #3C3F6F",
"@ c #373A72",
"# c #363A77",
"$ c #3B3F71",
"% c #3B3F76",
"& c #363A79",
"* c #373C7B",
"= c #373C7F",
"- c #3F414F",
"; c #3F4157",
": c #3E4059",
"> c #3F415D",
", c #3E4060",
"< c #3E4064",
"1 c #3D406A",
"2 c #3D406E",
"3 c #3C4073",
"4 c #464646",
"5 c #414248",
"6 c #41424F",
"7 c #43444F",
"8 c #44444D",
"9 c #484848",
"0 c #414251",
"q c #434451",
"w c #414357",
"e c #414259",
"r c #41435C",
"t c #42445F",
"y c #333887",
"u c #30368E",
"i c #32388B",
"p c #32388C",
"a c #2F3699",
"s c #303694",
"d c #333991",
"f c #313896",
/* pixels */
"8 aad<;;;;64444444444444<.,%<;64",
"4;;644444444$r44e,=$$$<444444444",
"444444$$$$$%uiX44@suuudy3<444$$$",
"4:$$$OuuuuuuaaX44&aaaaaaudi$Ouuu",
"4;@uuuaaaaaaa$444aaaaaaaaaauuaaa",
"44&aaaaaaaaaaX94$aaaaaaaaaaaaaaa",
"44&aaaaaaaaa$94q@aaaaaaaaaaaaaaa",
"44&aaaaaaaaa$444&ad<:&aaaaaaaaaa",
"44-;;;:&aaaaf+44q5444;:&aaaaad<;",
"4444444;;;;;;;544444444:&ad<6444",
"44$$t444444444444w,+e444<64444$$",
"4>uupiX$$$$t444>44@upi:4444$$%uu",
"4@aaaauuuuupiOOo44&aaapi$$%uuuaa",
"4&aaaaaaaaaaauu$44o&aaaauuuaaaaa",
"4&aaaaaaaaaaaaafO44:&aaaaaaaaaaa",
"4&aaaaaaaaaaaaaa$444&aaaaaaaaaaa",
"4&aaaaaaaaaaaaaaf+44*yaaaaaaaaaa",
"4&aaaaaaaaaaaaaaaf#44&aaaaaaaaaa",
"4&aaaaaaaaaaaaaaaa$44:&aaaaaaaaa",
"4&aaaaaaaaaaaaaaaa$444&aaaaaaaaa",
"4Oaaaaaaaaaaaaaaaaf144&aaaaaaaaa",
"4o&aad<;:&ad<;;;;;6444:&aaad<;;:",
"44&a+4444;6444444449444;;;644444",
"4406444444444$$$$:9484444444$$$%",
"44444$2iX$$$Ouuuuo44;OX$$$$%uuuu",
"244.%uuauuuuuaaaa$444&uuuuuuaaaa",
"$44.@aaaaaaaaaaaaf+44&aaaaaaaaaa",
"fO44&aaaaaaaaaaaaa$44o&aaaaaaaaa",
"a$44o&aaaaaaaaaaaafO44&aaaaaaaaa",
"afO44&aaaaaaaaaaaaa$44:&aaaaaaaa",
"aa244-;;;:&aad<;;;;7444-;;:&aaaa",
"e644444444<;644444444444444<.>.>"
};
