/* XPM */
static char *_841ba73242742c9ac18e92cdc12b573[] = {
/* columns rows colors chars-per-pixel */
"128 128 85 1 ",
"  c #C6933E",
". c #CC953D",
"X c #CE993F",
"o c #D0973E",
"O c #D0993F",
"+ c #C79340",
"@ c #CC9743",
"# c #CD9A44",
"$ c #CF9C49",
"% c #D39C44",
"& c #D89F46",
"* c #D39E4A",
"= c #D99F4B",
"- c #D6A046",
"; c #D9A147",
": c #D5A14B",
"> c #DCA54C",
", c #DEA84E",
"< c #D7A451",
"1 c #DCA651",
"2 c #DDA953",
"3 c #DEAC58",
"4 c #E0A74E",
"5 c #E1A94F",
"6 c #E0A750",
"7 c #E2AB53",
"8 c #E8AF56",
"9 c #E3AE5A",
"0 c #E8AF59",
"q c #E6B057",
"w c #E9B057",
"e c #E5B15C",
"r c #EBB35C",
"t c #EEB85E",
"y c #F0B75E",
"u c #E7B461",
"i c #EBB662",
"p c #EDB964",
"a c #EEBC69",
"s c #F1B764",
"d c #F2BC65",
"f c #F8BF66",
"g c #F3BE6A",
"h c #F8BF6E",
"j c #EFC16C",
"k c #F6C167",
"l c #F5C16C",
"z c #F9C369",
"x c #FAC46A",
"c c #FAC46D",
"v c #F8C46E",
"b c #F8C66F",
"n c #FDC86F",
"m c #FEC86E",
"M c #F6C370",
"N c #F7C471",
"B c #F8C470",
"V c #FBC773",
"C c #FDC473",
"Z c #FAC774",
"A c #F6C873",
"S c #FFCA72",
"D c #FFCC72",
"F c #F8C874",
"G c #FBC875",
"H c #FBCB77",
"J c #FDCA77",
"K c #FCCC77",
"L c #FFCD77",
"P c #FCC779",
"I c #FFC879",
"U c #FECB78",
"Y c #FCCC78",
"T c #FFCC79",
"R c #FFCA7D",
"E c #FFCF7C",
"W c #FFD177",
"Q c #FFD07B",
"! c #FFD47A",
"~ c #FFD07D",
"^ c #FFD57F",
"/ c #FFCE81",
"( c #FFD481",
") c #FFD983",
"_ c #FFD884",
/* pixels */
"TTTTTTTTTTTTTUUTS7-77,>#-iLQTQ~TTTTTTTTTTTTTTTTTLLLTTURRUBi74455* 1BTTTTTTTTTTTTTTTTTTTTTTTTTTTTLS!Qge91# #eG~QTTTTTTTTTTTTTTTTT",
"TTTTTTTTTTTTTTTT^t77,-*#uv~QTTTGTTTTTTTTTTTTTTTTLLLTTTUUUhu7454,*@3GTUTTTTTTTTTTTTTTTTTTTTTTTTTTSSWSt77:@@<l~~TGTTTTTTTTTTTTTTTT",
"TTTTTTTTTTTUTTETvq77,***SQ~TLTTLTTTTTTTTTTTTTTTTLLLTTTUUUg91,54>#*uUTJTTTTTTTTTTTTTTTTTTTTTTTTTTSDDf771*.:uG~~LGTTTTTTTTTTTTTTTT",
"TTTTTTTTTTTJT~EJ7>,7>X#-LLTTTQQTTTTTTTTTTTTTTTTTLLTTTTUUBd7>,5>;*3gTTJUTTTTTTTTTTTTTTTTTTTTTTTTTSLnr,71##1aGTGT^TTTTTTTTTTTTTTTT",
"TTTTTTTTTETJT~TB7,,,& @1JSGTTTTTTTTTTTTTTTTTTTTTLLTTTTUUhr1>,5>&*uGETUUTTTTTTTTTTTTTTTTTTTTTTTTTLWx9,71##qlLGGT^TTTTTTTTTTTTTTTT",
"TTTTTTTTJETJT~Jaq7,;*#1BLJLQ~GGGTTTTTTTTTTTTTTTTLLLLTTUUi91,4,;%1lETTTUTTTTTTTTTTTTTTTTTTTTTTTTTLLf777>*:eG~TTTTTTTTTTTTTTTTTTTT",
"TTTTTTTTGEEJT~Ne15>>>&e^TLT~QGGTTTTTTTTTTTTTTTTTTTLLTTUU971,4>&O3G~TTETTTTTTTTTTTTTTTTTTTTTTTTTTLnt,71**elT~QQTGTTTTTTTTTTTTTTTT",
"TTTTTTTTZE~JTEl3>7,,,*>vTJL~~GT_TTTTTTTTTTTTTTTTTTLLTTUL11774>%@9T(JT~TTTTTTTTTTTTTTTTTTTTTTTTTTDxq,7,#*ZLQLGQ~TTTTTTTTTTTTTTTTT",
"TTTTTTTTT~TU~Be3>,7; >gJLLTTTTTTTTTTTTTTTTTTTTTTEJTTBTJi1,>90%X7lMGTEETUTTTTTTTTTTTTTTTTTTTTTTTTLz7>1-#*LLTLTTTTTTTTTTTTTTTTTTTT",
"TTTTTTTTT~TU~Be31,,-#1vLLLTTTTTTTTTTTTTTTTTTTTTTEUTTJLSr,,>77%%rlBJTTTTUTTTTTTTTTTTTTTTTTTTTTTTTLk7>,* #LLTTTTTTTTTTTTTTTTTTTTTT",
"TTTTTTTTUEUUEl937,>%%eSLLLTTTTTTTTTTTTTTTTTTTTTTEUJTTLv9,>,7,%=dJJJJUUTTTTTTTTTTTTTTTTTTTTTTTTTTSt,,1%.-LLTTTTTTTTTTTTTTTTTTTTTT",
"TTTTTTTTUTUTEg332,>%#9STLLTTTTTTTTTTTTTTTTTTTTTTEUJTQJd7,,,7>%7BTTJJJJUTTTTTTTTTTTTTTTTTTTTTTTTTv9>,1**eLLTTTTTTTTTTTTTTTTTTTTTT",
"TTTTTTTTUTJTTa33,>>%X7vLLLTTTTTTTTTTTTTTTTTTTTTTERUT~Br,,>55%%0UETUJJJUTTTTTTTTTTTTTTTTTTTTTTTTTv7>,>*1gLLTTTTTTTTTTTTTTTTTTTTTT",
"TTTTTTTTUTJTTp13>>>-*eZLLLTTTTTTTTTTTTTTTTTTTTTTEEUTTk7,7>7,%*sTETUJJUTTTTTTTTTTTTTTTTTTTTTTTTTTvq,,&#1pLLTTTTTTTTTTTTTTTTTTTTTT",
"TTTTTTTTUUJTTu<31&%&,lQLLLTTTTTTTTTTTTTTTTTTTTTTR/RTTp,57,7,%=gUTTTUUTTTTTTTTTTTTTTTTTTTTTTTTTTTd75,##1eLLTTTTTTTTTTTTTTTTTTTTTT",
"TTTTTTTTUJJTTu:37%.*eT)LLTTTTTTTTTTTTTTTTTTTTTTTR(UTJt,79,76%>hUUUTTTTTTTTTTTTTTTTTTTTTTTTTTTTTT7>,,#*7qLLTTTTTTTTTTTTTTTTTTTTTT",
"TTTTTEETETEEv7>7,: #lTNQTUUTTTEETTTTTTTTG~B99B~GETJJS9;7,777>9TUTTTTTTTTZUTJT~TBTTTTTTTTTTTTTTTT9>57&>9rLLTTTTTTTBBT~ET~TTTTTTTT",
"TTTTTEEEETTTf1>7,: :ZQZTTTUUTTEETTTTTTTTZ~EMME~ZTTJJn9;7,777:9UUTTTTTTTTGTTUT~TZTTTTTTTTTTTTTTTTr,44&&9iLLTTTTTT~JT~JaaJTTTTTTTT",
"TTTTEEEE(UTUd1,91:#3T~GQTTETTTEETTTTTTTTJE~EE~EJTTJJv9>747,,*3UTTTTTTTTTJTETTTTJTTTTTTTTTTTTTTTT9,45>&7iLLTTTTTTTUE~l9eBTTTTTTTT",
"TTTTTEEE(UTSr,,7,:#7TQGQTTTETTEETTTTTTTTTUJJJJUTTTTJf9,757,>#3UTTTTTTTTTTTETTUTTTTTTTTTTTTTTTTTT7,59,&1rLLTTTTTTGGTENuaUTTTTTTTT",
"TTTTERRR(UTCe,771*@qGLG~TTEEEEEETTTTTTTTTJZGGZJTTTTJd74757>>#1UTTTTTTTTTTTTTTUUTTTTTTTTTTTTTTTTT7447,%>iLLTTTTTTJJUTUJUTTTTTTTTT",
"TTTTTRRREJTS7>7,1##eZJG~TTEETEEETTTTTTTTTTT~~TTTTUTJt77547>-#3UTTTTTTTTTTGBJTTTTTTTTTTTTTTTTTTTTr7>>&X>zLLTTTTTTETTUT(~JTTTTTTTT",
"TTTTEERREZTC7,7>3#*pTLJ~UUURTUEETTTTTTTTJT~~~~TJTU~Jr77447,>*3UTTTTTTTTTTMgBETTTTTTTTTTTTTTTTTTT97>>>.*hLLTTTTTTETUUTTTGTTTTTTTT",
"TTTTTERREBTS7,7-2#-l~TL~UUUUUUEETTTTTTTTJEEJJEEJUJ~Sr77447,>*3UTTTTTTTTTTlpNTETTTTTTTTTTTTTTTTTT,4497X@iLLTTTTTTJGJUJBZJTTTTTTTT",
"TTTTRRREUUJB71,,2@:v~TTTTTTTUURETTTTTTTTTTTTTTTTUJ~Tr>4744,%@9JUTTTTTTTTTZMBUTJNTTTTTTTTTTTTTTTTz,>,>%*dvTTJTUBBTTTTTTTTTTTTTTTT",
"TTTTTREEUUJB71,,- 1S~JTTTTTTUURRTTTTTTTTTTTTTTTTTJ~Lr>47441*#eJTTTTTTTTTTJBZUTJBTTTTTTTTTTTTTTTTd>777>%9dJUCE~TTTTTTTTTTTTTTTTTT",
"TTTTRRRRUUJB71,,# 3L~JLQTTTTUURETTTTTTTTTTTTTTTTTJTJr>47551*%eTTTTTTTTTTUUJUUUUJTTTTTTTTTTTTTTTTt,776,%1pSUJ~~T~TTTTTTTTTTTTTTTT",
"TTTTTRERUUJB71,,# 1ZQTTTTTTTUURETTTTTTTTTTTTTTTTEJTSe>45757&*uTTTTTTTTTTJTTTUJTTTTTTTTTTTTTTTTTTz74>>>&6gT~TETGUTTTTTTTTTTTTTTTT",
"TTTTEEEEUUUC71,,:@>lQ~~JTTTTTTEETTTTTTTTTTTTTTTT~JTJr,44751**pETTTTTTTTTJT~TUJTETTTTTTTTTTTTTTTTS7>;>>%7gT~TEUBJTTTTTTTTTTTTTTTT",
"TTTTTEEEUUJB71,,>#2lT~~GTTTTTTEETTTTTTTTTTTTTTTT~JTJt64,7,,&-pETTTTTTTTTJTETUJTETTTTTTTTTTTTTTTTS94,1,@>rBTTETJETTTTTTTTTTTTTTTT",
"TTTTEEEEUUJB71,,-:eZLTQTTTTTTEEETTTTTTTTTTTTTTTTEJTTd75,,,,*:pEUTTTTTTTTUTTTUUUTTTTTTTTTTTTTTTTTSr7,77%%7vTJTTT~TTTTTTTTTTTTTTTT",
"TTTTTEEETUJB71,,#:l~JZTQTTTTEEEETTTTTTTTTTTTTTTTEJ~~h97>,>>&-pTJTTTTTTTTUUUUUUUUTTTTTTTTTTTTTTTTTd9>>7&%7lJJTTU~TTTTTTTTTTTTTTTT",
"TTTTREEEUE~v7>,>*:JTZ~ZTTTTTTTTTTTTTTTTTTTTTTTTTUUUTJe-7>,>#>gLSTTTTTTTTTTTTTTTTTTTTTTTTTTTTTTTTJg7166>%9dLTBJTZTTTTTTTTTTTTTTTT",
"TTTTTEEEUTEv7>,-*:ZTG~GTTTTTTTTTTTTTTTTTTTTTTTTTUUUTJr>7,,-.&tSQTTTTTTTTTTTTTTTTTTTTTTTTTTTTTTTTUg9111>%>rSQSTEZTTTTTTTTTTTTTTTT",
"TTTTRRREUEEl7>,-**NTGEGTTTTTTTTTTTTTTTTTTTTTTTTUURUTJr>5,,>%*7lTTTTTTTTTTTTTTTTTTTTTTTTTTTTTTTTTTlr71,>%%7n~TT~GTTTTTTTTTTTTTTTT",
"TTTTTREEETTl7>,-$*gTJTJTTTTTTTTTTTTTTTTTTTTTTTTTUEUTJt,7,,,,>>rvTTTTTTTTTTTTTTTTTTTTTTTTTTTTTTTTTZp7,,;%%,zQTT~JTTTTTTTTTTTTTTTT",
"TTTTRREEEUUh7,,*##pTUTJTTTTTTTTTTTTTTTTTTTTTTTTUU/UUJd1,>>,7>-eJTTTTTTTTTTTTTTTTTTTTTTTTTTTTTTTTTUg9,,>%&>fLUTEJTTTTTTTTTTTTTTTT",
"TTTTTREEEUJh7,,*#@uUTUJTTTTTTTTTTTTTTTTTTTTTTTTTUEUJLg7,>>>>*-d(TTTTTTTTTTTTTTTTTTTTTTTTTTTTTTTTTTle,,,&&>tSSJTUTTTTTTTTTTTTTTTT",
"TTTTRREREUJg71,%#@eUTUJTTTTTTTTTTTTTTTTTTTTTTTTUU/RJUh7,,,,&%>g(TTTTTTTTTTTTTTTTTTTTTTTTTTTTTTTTJEBe114>%&rSJJTTTTTTTTTTTTTTTTTT",
"TTTTTEEREJJg71>##+9JTJJTTTTTTTTTTTTTTTTTTTTTTTTTUEUJLl9,577>*>uBTTTTTTTTTTTTTTTTTTTTTTTTTTTTTTTTGEBe,67>O%rSLJTTTTTTTTTTTTTTTTTT",
"TTTTEEEEUUTh7,7-#*3EUGETTTUUUUJJTTTTTTTTTTTTTTTUU/ECJLf,>,7>>,7TTTTTTTJJTTTTTTTTTTTTTTTTTTTTTTTTTUTd>,95%o7z~JJTTTTTTTTTTTTTTTTT",
"TTTTTEEEUUTl7,7>#*2ETJETJJJUUTTTTTTTTTTTTTTTTTTTUETCJLf7>>5&%&>vTTTTTTUJTTTTTTTTTTTTTTTTTTTTTTTTTTTg>>744%>rLLTTTTTTTTTTTTTTTTTT",
"TTTTEEEEUUTh7,7,#*<ETJTJZGJJTTTETTTTTTTTTTTTTTTUR/TCJLlq,>7&#%*dJTTTTTTJTTTTTTTTTTTTTTTTTTTTTTTTJTTh7>449%@7J~TJTTTTTTTTTTTTTTTT",
"TTTTTEEEETTv7,71#*<TTUTGGJJJTTTTTTTTTTTTTTTTTTTTUEUJLLxt5,q>***uNUTTUTTUTTTTTTTTTTTTTTTTTTTTTTTTJT~ve,>,4%%7B~TMTTTTTTTTTTTTTTTT",
"TTTTRRRREUTB9,77*$:GTTEZUUUUUUUTTTTTTTTTTTTTTTTUREUUTLnf5>97>-*7gJETJTEUTTTTTTTTTTTTTTTTTTTTTTTTJETCd7>,>;&7dTTZTTTTTTTTTTTTTTTT",
"TTTTTRRREUTSr,71:$*NUT~ZTTTUUJJJTTTTTTTTTTTTTTTTEEUULLSx7-1,--%*aJ~UJE~UTTTTTTTTTTTTTTTTTTTTTTTTJTTSvr,44,&*3BE~TTTTTTTTTTTTTTTT",
"TTTTEERREUETi1,11*#lGT~JJJUUUUTTTTTTTTTTTTTTTTTU/RUUTTLSd>,,->%%iG~UJE~UTTTTTTTTTTTTTTTTTTTTTTTTJTJUJd4475%%1B~ETTTTTTTTTTTTTTTT",
"TTTTTTTUEJ~Qp1111*#gBT~JZGJJTTT~TTTTTTTTTTTTTTTTERUTTTLLD971>,**uZ~UG~~UTTTTTTTTTTTTTTTTTTTTTTTTTTJT~h75,,%*7LTBTTTTTTTTTTTTTTTT",
"TTTTTTTTJJTTle131*.,SQBJTTTTTTTTTTTTTTTTTTTTTTTTEEETTTTTLp771-**3lEUZE~TTTTTTTTTTTTTTTTTTTTTTTTTTGGTTve37->%-zQLTTTTTTTTTTTTTTTT",
"TTTTTTTTJJTTNu221-X>xLSJLLTTTTTTTTTTTTTTTTTTTTTTEETTTTTTTle71>**#uGJGTEJTTTTTTTTTTTTTTTTTTTTTTTTTTTTTAi33:>%&fLLTTTTTTTTTTTTTTTT",
"TTTTTTTTGJTEZi311>%&tDLSLLTTTTTTTTTTTTTTTTTTTTTTRRTTTTTT~Jd7>>>%+9BTTTTGTTTTTTTTTTTTTTTTTTTTTTTTTQTGTTg31>1&%tSLTTTTTTTTTTTTTTTT",
"TTTTTTTTZJT~Jg911,%X7nQJLLTTTTTTTTTTTTTTTTTTTTTTEETTTTTTTTl9>31*#eG~EUJJTTTTTTTTTTTTTTTTTTTTTTTTG~TNL~v7121-%9nLTTTTTTTTTTTTTTTT",
"TTTTTTTTGJTETMu1,,-X>lQSLLTTTTTTTTTTTTTTTTTTTTTTRRTTTTTTJTB9177:*3gTTJJTTTTTTTTTTTTTTTTTTTTTTTTTL~TNG^Se117>X,xLTTTTTTTTTTTTTTTT",
"TTTTTTTTJTTTTGp21,-X*dTJLLTTTTTTTTTTTTTTTTTTTTTTEETTTTTTBTJu177:@$9MUGJ~TTTTTTTTTTTTTTTTTTTTTTTTL~TGL~Ll111>X>kDTTTTTTTTTTTTTTTT",
"TTTTTTTTTTUJTUa37>-O%rJLLLTTTTTTTTTTTTTTTTTTTTTTEEETTETTBTUd93>=@@1lTJGTTTTTTTTTTTTTTTTTTTTTTTTTTTTTTTLZ73,>X-fnTTTTTTTTTTTTTTTT",
"TTTTTTTTTTJJTTg32;-%%eSLLLTTTTTTTTTTTTTTTTTTTTTTEETTTETTJ~The>-*:$3B(TZJTTTTTTTTTTTTTTTTTTTTTTTTTTT~QLLL73>>%-dvTTTTTTTTTTTTTTTT",
"TTTTTTTTGEEJU~Be1>>&%-uLLLTTTTTTTTTTTTTTTTTTTTTTEETEEETUTT~J911>*:*3U~UUTTTTTTTTTTTTTTTTTTTTTTTTTTTTTTLL77>&X.>v~JGTTGGTTTTTTTTT",
"TTTTTTTTGETJU~Bu,,>-%&eLLLTTTTTTTTTTTTTTTTTTTTTTTETEEETTTT~Jr11>$*$2N~JGTTTTTTTTTTTTTTTTTTTTTTTTTTTTTTLLpu7,>%,vTGJEEUJTTTTTTTTT",
"TTTTTTTTGTTJUEZp,,,>#%qZLLTTTTTTTTTTTTTTTTTTTTTTRETTTTTT~JTTd1>1*$@<gTUZTTTTTTTTTTTTTTTTTTTTTTTTTTTTTTLLlu177-,nJGU~~TTTTTTTTTTT",
"TTTTTTTTJTTJUTGg,,7>##3lLLTTTTTTTTTTTTTTTTTTTTTTTETTGGUT~JJEv7>3:$@*iUTGTTTTTTTTTTTTTTTTTTTTTTTTTTTTTTLLJp,17%%rLTTTTUTETTTTTTTT",
"TTTTTTTTJTTJJTJl,57,%X>pLLTTTTTTTTTTTTTTTTTTTTT~REEGGGUE~JJESe171*#*eZ~UTTTTTTTTTTTTTTTTTTTTTTTTTTTTTTLLBr>,5%%eTEEUGGUTTTTTTTTT",
"TTTTTTTTJUUJJUUJ277,*.:9LLTTTTTTTTTTTTTTTTTTTTTTGEEGGGU~TTJTLp132<*$1l~TTTTTTTTTTTTTTTTTTTTTTTTTTTTTTTLLQve75%X>GT~JBGUTTTTTTTTT",
"TTTTTTTTUJJJJUTT771,&#*1LLTTTTTTTTTTTTTTTTTTTTUTGREGNNJ~JTUUTh723<:#$pTUTTTTTTTTTTTTTTTTTTTTTTTTTTTTTTLLLBt7,-%>gGETJUTUTTTTTTTT",
"TTTTTTTTUJJJJJTTe7,,-#%-LLLTTTTTTTTTTTTTTTTTTTTTGTEGNNJ~J~TJTl911::@@eLJTTTTTTTTTTTTTTTTTTTTTTTTTTTTTTLLSJp,>%X#elTETTTJTTTTTTTT",
"TTTTTTTTTTTTTTTTd7,7,%X-rL~JTTTETTTTTTTTTTTTTTTTTTTTTTTTT~JJ~B933,#&#>JTTTTTTTTTTTTTTTTTEBJ(ZeuUTTTTTTLLTL917>-%rT~GT~UJTTTTTTTT",
"TTTTTTTTTTTTTTTTd7,7,%O%rD!JLTTETTTTTTTTTTTTTTTTTTTTTTTTTEJJ~Ze31,%-%>SLLLTTTTTTTTTTTTTTTZJ~JagETTTTTTLLLJ917>-#3NTGTEJJTTTTTTTT",
"TTTTTTTTTTTTTTTTh9>,5;%%9SQJTEEETTTTTTTTTTTTTTTTTTTTTTTTTEJJ~Gu31,>>%-lLLLTTTTTTTTTTTTTTUJT~TGJ~TTTTTTLLLJ7,7;&#:aUJUTJUTTTTTTTT",
"TTTTTTTTTTTTTTTTv0>,5>%O,xQJTTUETTTTTTTTTTTTTTTTTTTTTTTTTTUUEUp31,,,*&pLLLTTTTTTTTTTTTTTUTTTTTETTTTTTTLLLS7,5-&#*pTTUJJUTTTTTTTT",
"TTTTTTTTTTTTTTTTCr>>5,&O>lTUTERETTTTTTTTTTTTTTTTTTTTTTTTTTTUTTl9,,7,&*9SLLTTTTTTTTTTTTTTTTTJUTTJTTTTTTLLLS7,7-&#:uT~TJUJTTTTTTTT",
"TTTTTTTTTTTTTTTTBi,>,4&O%dLJTTUETTTTTTTTTTTTTTTTTTTTTTTTTTTTUEB9,,7>-*:vLLTTTTTTTTTTTTTTTTTJJUJGTTTTTTLLLS7,7>&#:eG~TJTJTTTTTTTT",
"TTTTTTTTTTTTTTTTBs7>,,;OXdLJTUUETTTTTTTTTTTTTTTTTTTTTTTTTTTTJ~J91>7>-**gLLTTTTTTTTTTTTTTTTTTTJJTTTTTTTLLLJ917>-%:3lTJJTJTTTTTTTT",
"TTTTTTTTTTTTTTTTBd7>>,;%.tLJTTUETTTTTTTTTTTTTTTTTTTTTTTTTTETJ~Te1>7>>*@gLLTTTTTTTTTTTTTTTUT~~JT(TTTTTTLLTL917>-#*:pJZJ~UTTTTTTTT",
"TTTTTTTTTTTTTTTTJv9,555OX-J~JEZUTTTTTTTTTTTTTTTTTTTTTTTTTTTTTTTT1,,7>%#-l~GG~LTGTTTTTTTTTTTTTTTTTTTTTTLLTle,>1>%*eGTZU~ZTTTTTTTT",
"UTTTUJZBTTTTTTTTJv0,,55%X&vLJTJUTTTTTTTTTTTTTTTTTTTTTTTTTTTTTTTT1,,7>*#-gQGG~LTGTTTTTTTTTTTTTTTTTTTTTTLLTvr,,,>%:3MTJUEGTTTTTTTT",
"JUTTJBlgTTTTTTTTTBr,>,5-X%gJJEURTTTTTTTTTTTTTTTTTTTTTTTTTTTTTTTT,>,7,&#*iQGG~LTLTTTTTTTTTTTTTTTTTTTTTTLLLSg7>,,&:<aTTUTJTTTTTTTT",
"UTTTJBMlTTTTTTTTTBt4>,5>.XevJTEUTTTTTTTTTTTTTTTTTTTTTTTTTTTTTTTT,>>71-#*qLLLQL~TTTTTTTTTTTTTTTTTTTTTTTLLJLl9>,,-::uTTJTUTTTTTTTT",
"TTTUUJJJTTTTTTTTECd7>,5,XX1lJU/UTTTTTTTTTTTTTTTTTTTTTTTTTTTTTTTT7>>,7>**2LTLTG~TTTTTTTTTTTTTTTTTTTTTLLLLJTne,5,&**uTTJTUTTTTTTTT",
"TTTTTTE~TTTTTTTTTJz9>5,5X.-lJJ(GTTTTTTTTTTTTTTTTTTTTTTTTTTTTTTTTe,>,7,**:ZTLTL~TTTTTTTTTTTTTTTTTTTTTLLLLSQne,7,*$:pUJJTUTTTTTTTT",
"UUTTTTTTTTTTTTTTEJnr,7,5%X#lTU(PTTTTTTTTTTTTTTTTTTTTTTTTTTTTTTTTd7>,7,-*#ZTLTG~TTTTTTTTTTTTTTTTTTTTTTTLLJQn9,7,##1gUZU~JTTTTTTTT",
"GJTE~TUJTTTTTTTTTJSr17>5&X#gTJ(ZTTTTTTTTTTTTTTTTTTTTTTTTTTTTTTTTkq>,7,-*@BQTGL~TTTTTTTTTTTTTTTTTTTTTTTTTJQB9,9,.#3MJNU~JTTTTTTTT",
"TTTTTTTTTTTTTTTTTJTv7,74&O%%(JJUTTTTTTTTJT~TJJJJTTTTTTTTTTTTTTTTBr,5,,,*#pUU~TJQTTTTTTTTTTTTTTTTTTTTTTTTTTCu>79&#*uGGZJZTTTTTTTT",
"TTTTTTTTTTTTTTTTTJTv9,75>%%%QJUTTTTTTTTT(JNBTTTJTTTTTTTTTTTTTTTTBr,5,,>&*dUEEJvJTTTTTTTTTTTTTTTTTTTTTEEEUUCi,77*#*uTE~((TTTTTTTT",
"TTTTTTTTTTTTTTTTTJTBr,554%X@TTTTTTTTTTTT(a9pU~TJTTTTTTTTTTTTTTTTJr,5,,,&*iUEEJBJTTTTTTTTTTTTTTTTTTTTEEEEREUd777*##9BZBGBTTTTTTTT",
"TTTTTTTTTTTTTTTTTUJBt7474%X%SEEJTTTTTTTTB9<uJTUTTTTTTTTTTTTTTTTTJr45,4,&#9MUETLQTTTTTTTTTTTTTTTTTTTTTEEEETEv71,#::uTTJJJTTTTTTTT",
"TTTTTTTTTTTTTTTTTTJCf7>7,%X*v~TBTTTTTTTTMuelTJGETTTTTTTTTTTTTTTTUr44,55=#2gRETTQTTTTTTTTTTTTTTTTTTTTRRRREEEBe1,&*#9U~T~~TTTTTTTT",
"TTTTTTTTTTTTTTTTTTJJz9>7,&X*pTTBTTTTTTTTUBZ~~JGTTTTTTTTTTTTTTTTTLr44>55>*1gETJJSTTTTTTTTTTTTTTTTTTTTTRRRETEBe1,-$+2ZTZZJTTTTTTTT",
"TTTTTTTTTTTTTTTTTTJJB9>7,&.%7BTUTTTTTTTTTT~~~TUTTTTTTTTTTTTTTTTTTr44,57>*<a/UJLJTTTTTTTTTTTTTTTTTTTTEEREEUECe17,3*e~(UJUTTTTTTTT",
"TTTTTTTTTTTTTTTTTTJJS9;75> X:lT~TTTTTTTTZJJJUTTTTTTTTTTTTTTTTTTTTr45>57>#*iETJQTTTTTTTTTTTTTTTTTTTTTTERREUTBe172*+<J~JJTTTTTTTTT",
"TTTTTTTTTTTTTTTTJ~TUJt,44>X.*~TUTTTTTTTTTTTTTTTTTTTTTTTTTTTTTTTTTr67,,,&#1gEUTQGTTTTTTTTTTTTTTTTTTTTEEEEEUUBe>,7:$9ZJZTETTTTTTTT",
"TTTTTTTTTTTTTTTTUETLSi,44>X.*~TUTTTTTTTTTTTTTTTTTTTTTTTTTTTTTTTTLr45>,,&%<gRUUTZTTTTTTTTTTTTTTTTTTTTTEEEEJTJr,,,*#9JTGUTTTTTTTTT",
"TTTTTTTTTTTTTTTTTTTTJd,54>X.*~UUTTTTTTTTTTTTTTTTTTTTTTTTTTTTTTTTTr67,,,&%<aRUUTJTTTTTTTTTTTTTTTTTTTTEEEEUZETp1,>*#9UEUUJTTTTTTTT",
"TTTTTTTTTTTTTTTTTETLLd554,@X*EUUTTTTTTTTTTTTTTTTTTTTTTTTTTTTTTTTLr45>,,&*=iRUUTJTTTTTTTTTTTTTTTTTTTTTEEEUJTTp1,>$#3GTUUJTTTTTTTT",
"TTTTTTTTTTTTTTTTTTJUTf774,%@*TJUTTTTTTTTTTTTTTTTTTTTTTTTTTTTTTTTTr67,,,&*=uRUUTTTTTTTTTTTTTTTTTTTTTTEEEEEUEUi1,1*@3NUUTTTTTTTTTT",
"TTTTTTTTTTTTTTTTTTJLQf774,%X*TJUTTTTTTTTTTTTTTTTTTTTTTTTTTTTTTTTLr45>,,&**uUTJLLTTTTTTTTTTTTTTTTTTTTTEEEEJTLt1,1:@1lJUTTTTTTTTTT",
"TTTTTTTTTTTTTTTTTTJUTz7744&@*TJUTTTTTTTTTTTTTTTTTTTTTTTTTTTTTTTTTr67>,,&**9UEJTTTTTTTTTTTTTTTTTTTTTTRREEEU~Tp1,,*@1MTTTJTTTTTTTT",
"TTTTTTTTTTTTTTTTTTJLQz774,&##LGUTTTTTTTTTTTTTTTTTTTTTTTTTTTTTTTTLr45>,,&=%9JTJTTTTTTTTTTTTTTTTTTTTTTTREEUJ~~g7,:#+1BETTZTTTTTTTT",
"TTTTTTTTTTTTTTTTTTQJLn5,>5%##T(NTTTTTTTTTTTTTTTTTTTTTTTTTTTTTTTTLr77577=*#3J~TTUTTTTTTTTTTTTTTTTTTTTRRREEUTUi,,1*#3ZTUTUTTTTTTTT",
"TTTTTTTTTTTTTTTTTTQSLb,,,7*##L(ATTTTTTTTTTTTTTTTTTTTTTTTTTTTTTTTLr77666=**uTTJTETTTTTTTTTTTTTTTTTTTTTREEEJTJt,,1*#3ZTUTUTTTTTTTT",
"TTTTTTTTTTTTTTTTTTQJLn5,,7&##G(GTTTTTTTTTTTTTTTTTTTTTTTTTTTTTTTTLr57161**>g~TBT~TTTTTTTTTTTTTTTTTTTTRRRREUTUi,,1*#3BTUTUTTTTTTTT",
"TTTTTTTTTTTTTTTTTYQZLb,,57-*#N(TTTTTTTTTTTTTTTTTTTTTTTTTTTTTTTTTLr57111**>g~TZTETTTTTTTTTTTTTTTTTTTTTREREJTLt,,1*#3BTUTUTTTTTTTT",
"TTTTTTTTTTTTTTTTTTQJLn5,55>*#g~TTTTTTTTTTTTTTTTTTTTTTTTTTTTTTTTTSr45,,1**-uJTTEUTTTTTTTTTTTTTTTTTTTTEEEEEUTTi,,1*#3BTUTUTTTTTTTT",
"TTTTTTTTTTTTTTTTTTQSLv,,5,:##p~QTTTTTTTTTTTTTTTTTTTTTTTTTTTTTTTTSr45,,1**-uJUT~JTTTTTTTTTTTTTTTTTTTTTEEEEJTLt,,1*#3BTUTUTTTTTTTT",
"TTTTTTTTTTTTTTTTTTQJLn5,,,>##eT~TTTTTTTTTTTTTTTTTTTTTTTTTTTTTTTTSr,5,,1&*1gTJJEUTTTTTTTTTTTTTTTTTTTTEEEEEUTUi,,1*#3BTUTUTTTTTTTT",
"TTTTTTTTTTTTTTTTTTQSLv,,,>:#@eT~TTTTTTTTTTTTTTTTTTTTTTTTTTTTTTTTSr,4,,1&*7J~JBTETTTTTTTTTTTTTTTTTTTTTEEEEJTLt,,1*#3BTUTUTTTTTTTT",
"TTTTTTTTTTTTTTTTTTQJLn5,5,,# aGTTTTTTTTTTTTTTTTTTTTTTTTTTTTTTTTTnr>>76>**eB~TJTTTTTTTTTTTTTTTTTTTTTTEEREUUTCr,,,*@3ZETUJTTTTTTTT",
"TTTTTTTTTTTTTTTTTTQSLb,,7,>#.lLTTTTTTTTTTTTTTTTTTTTTTTTTTTTTTTTTzr>,76>*%rJTJUTTTTTTTTTTTTTTTTTTTTTTTEREUJTBr17,*@3ZETTJTTTTTTTT",
"TTTTTTTTTTTTTTTTTTQJLn5,7,>##NTLTTTTTTTTTTTTTTTTTTTTTTTTTTTTTTTTf8,471*%%d~TZUTUTTTTTTTTTTTTTTTTTTTTRREEEUEBe17,##3ZTUTJTTTTTTTT",
"TTTTTTTTTTTTTTTTTYQZLb,,7>-##G~LTTTTTTTTTTTTTTTTTTTTTTTTTTTTTTTTi7,47>*%%v(JBTTUTTTTTTTTTTTTTTTTTTTTTRREETTv977>##eGUUTTTTTTTTTT",
"TTTTTTTTTTTTTTTTTTQJLn,,7>-#*T~GTTTTTTTTTTTTTTTTTTTTTTTTTTTTTTTTr7,77>%%-S(BBTUUTTTTTTTTTTTTTTTTTTTTRRREEETl777-#*uJJJETTTTTTTTT",
"TTTTTTTTTTTTTTTTTTQSLv,,,--#:T~LTTTTTTTTTTTTTTTTTTTTTTTTTTTTTTTT94,4,&%&1J~BJTGTTTTTTTTTTTTTTTTTTTTTTEEEETTg777*$1gTJJETTTTTTTTT",
"TTTTTTTTTTTTTTTTTTQJLn5,>&&#*L~TTTTTTTTTTTTTTTTTTTTTTTTTTTTTTTTL94,,>%%*eLTBETNTTTTTTTTTTTTTTTTTTTTTEEEEEEUp11,%*3M~JJETTTTTTTTT",
"TTTTTTTTTTTTTTTTTTQSLv,,;%-##G~TTTTTTTTTTTTTTTTTTTTTTTTTTTTTTLLL9,,,>%%-iTJB~TlTTTTTTTTTTTTTTTTTTTTTTTTUTTJi>1,#:9Z~JJETTTTTTTTT",
"~JJ~~ZZ~TTTTTTTTTTZLQl7,&%* 1G~~TTTTTTTTTTTTTTTTTTTEEEUTLGQ~JLJp711>>**:TTTTTTEEUETJJTEUTTTTTTTTTTTTTTTUTJh7,5,&11uG~TJTTTTTTTTT",
"~JJEGu39TTTTTTTTTTZLWk75%%#.9LTTTTTTTTTTTTTTTTTTTETTERTTLL~QJTJu7111>%*1TTTTTTEEUEETTEEJTTTTTTTTTTTTTTLLTvt7>,>%#:uBTTTTTTTTTTTT",
"~UT~UaeuTTTTTTTTTTGLTf7,O%##pQGGTTTTTTTTTTTTTTTTEETTUTTTLT~TL~Se7>11:#:eTTTETTEEUEEUT~EUTTTTTTTTTTTTTTLLTd7,,>%@:uJTTTTTTTTTTTTT",
"(TUETJJETTTTTTTTTTGLLg,,%&.*l~GLTTTTTTTTTTTTTTTTTETTUTTTT~~JL^v37>17=@1gTTTETTETTTUBBTTTTTTTTTTTTTTTTTLLTi>17;o%1l(~UT~TTTTTTTTT",
"EUGJJZJTTTTTTTTTTTJLLd,,&-.-NQGTTTTTTTTTTTTTTTTTEETTTTTTT~QGLQl17111*%9BTTEETEEEETGggGTTTTTTTTTTTTTTTTLLBr>77&O&#iUZMT~TTTTTTTTT",
"BZJTTTJJTTTTTTTTLQLLDp>,-&.1ZTL~TTTTTTTTTTTTTTTTUETTTTTTT~TJLZr2311>*=uTTTEETEEETTZggZTTTTTTTTTTTTTTTTLLd9,7,%%,3lTGBTEJTTTTTTTT",
"ZJT~~~~ETTTTTTTTGTLLSt>,%%%rTLGTTTTTTTTTTTTTTTTTRRTTEETTLQLTQl31171*%2gTTTTTTTEETTJNNJTTTTTTTTTTTTTTTTLL976,&X%,B~(ETETBTTTTTTTT",
"~TUZBGUTTTTTTTTTLQLLSr>>OX*gQGLTTTTTTTTTTTTTTTTTEETTEETTLTJTQp13171%#9B~UUTTTTRTUEEJJEEUTTTTTTTTTTTTTTLL>17,O %7JUUJUEUBTTTTTTTT",
"TTTTTTTTTTTTTTTT~GGTl1-,7O*pTJNTTTTTTTTTTTTTTTTTEEEETTTTLZJQZp3211>##7gTTTTTTTRRTTTTTTTTTTTTTTTTTTJJE~vr177>O%7dTTTTTTTTTTTTTTTT",
"TTTTTTTTTTTTTTTTQLLLg1->>X-gQLG~TTTTTTTTTTTTTTTTEEURTTTTLJTTBe3217>*1dJ~TTTTTTRETTTTTTTTTTTTTTTTTTUJTTle171>%&7dTTTTTTTTTTTTTTTT",
"TTTTTTTTTTTTTTTTTTTNu7>>%%7v~TT(TTTTTTTTTTTTTTTTRRUUETTTJTTLlq2211>*9J(TTTTTTTEETTTTTTTTTTTTTTTTTTTTTJd711,&%>rhTTTTTTTTTTTTTTTT",
"TTTTTTTTTTTTTTTTT~Taq1>-%>rDQTT^TTTTTTTTTTTTTTTTUETUTETTJTQZi212:>%@9T~BTTTTTEEETTTTTTTTTTTTTTTTUTTTUlr171&%&5dnTTTTTTTTTTTTTTTT",
"TTTTTTTTTTTTTTTTT~Zu31,&%7lQQLGTTTTTTTTTTTTTTTTTRRTETTTTJQTlq>:21-@@9T~lTTTTTTEETTTTTTTTTTTTTTTTUTTEJp7>9>%X&8zLTTTTTTTTTTTTTTTT",
"TTTTTTTTTTTTTTTTTLa7,1,&%qnWQLTTTTTTTTTTTTTTTTTTTRTTRTTTJQLa3::21>*>dT~BTTTTTTEETTTTTTTTTTTTTTTTTTEEBu717=XX>ynTTTTTTTTTTTTTTTTT",
"TTTTTTTTTTTTTTTT~Ne211>-%rSTTTTTTTTTTTTTTTTTTTTTEEETUUUTLTZu2:21>*-rBTTJTTETTEEETTTTTTTTTTTTTTTTTTEEBu77>%.%9fSLTTTTTTTTTTTTTTTT",
"TTTTTTTTTTTTTTTT^j3:>,>-OwnLLQ~QTTTTTTTTTTTTTTTTTEEERUTTLTBe>>22#@-pUTJJTTTTTTEETTTTTTTTTTTTTTTTETEEle77*@X*rxSSTTTTTTTTTTTTTTTT"
};
