/* XPM */
static char *_9209ca8b476474d8c1df9f1822406d9[] = {
/* columns rows colors chars-per-pixel */
"108 144 19 1 ",
"  c None",
". c #745133",
"X c #745233",
"o c #9C703A",
"O c #9D713B",
"+ c #916640",
"@ c #AD7842",
"# c #A78C4A",
"$ c #BFA76F",
"% c #C38B48",
"& c #C48C49",
"* c #D8A964",
"= c #D9AA64",
"- c #449ECC",
"; c #B78A81",
": c #D6BF82",
"> c #CBA093",
", c #DAAD96",
"< c white",
/* pixels */
"-----------------------------,------------------------------------------------------------------------------",
"----------------------------,,>-----------------------------------------------------------------------------",
"----------------------------,>@@@---------------------------------------------------------------------------",
"---------------------------,,>@+@+X-------------------------------------------------------------------------",
"---------------------------,,>@@@++X------------------------------------------------------------------------",
"--------------------------,,>>;XX@+++X----------------------------------------------------------------------",
"--------------------------,,>>;;;X+@+@+---------------------------------------------------------------------",
"--------------------------,,>>;;;;XX++@+X-------------------------------------------------------------------",
"-------------------------,,>>;;;;>>;XX+@@+X-----------------------------------------------------------------",
"-------------------------,,>>;;;>;;;;XX++@+X----------------------------------------------------------------",
"------------------------,,,>>;;>;;;;;;;XX++++X--------------------------------------------------------------",
"------------------------,,>>>;>;;;;;;;;;;X+++++-------------------------------------------------------------",
"------------------------,,>>>>;;;;;;;;;;;;XX++++X-----------------------------------------------------------",
"-----------------------,,,>>>>;;;;;;;;;;;;;;XX++++----------------------------------------------------------",
"-----------------------,,,>>>;;;;;;;;;;;;;;;++X++++X--------------------------------------------------------",
"-----------------------,,,>>>;;;;;;;;;;;;;;;+@XXX++++-------------------------------------------------------",
"---------------------->,,,>>;;;;;;;;;;;;;;;;+@X;XX+++++-----------------------------------------------------",
"----------------------,,,,>>;;;;;;;;;;;;;;;;+@X;;;XX++++X---------------------------------------------------",
"---------------------,;,,>>>;;;;;;;;;;;;;;;;@+X;;;;XXX++++--------------------------------------------------",
"---------------------,;,,>>>;;;;;;;;;;;;;;;;@@X;;;;;;XX++++X------------------------------------------------",
"---------------------,;>,>>>;;;;;;;;;;;;;;;;@@X;;;;;;;;XX+XXX-----------------------------------------------",
"--------------------,,>;,>>>;;;;;;;;;;;;;;;;@+X;;;;;;;;;XXX+X++---------------------+@+@--------------------",
"--------------------,,,;,>>>;;;;;;;;;;;;;;;;+@X;;;;;;;;;;X++X---------------------<@+@+@+<------------------",
"-----------------<<<,,,;>>>>;;;;;;;;;;;;;;;;@@X;;;;;;;;;X++X---------------------<+@+@++++<-----------------",
"--------------<<<<$,,,,>;>>>;;;;;;;;;;;;;;;;@+X;;;;;;;;;++X--------------<<<-<<<<<$#+++#:$<<<<<-------------",
"------<@@@@@@@@@@@@,,,,,;>>>;;;;;;;;;;;;;;;;@+X;;;;;;;;X+X@@@@@@++++++++++++++++@@@:#@@:#@@@@@+++++@@X<-----",
"-----<@@@@@@@++++++,,,,,,;>>;;;;;;;;;;;;;;;;@@X;;;;;;;X++X++++@@@@@@@@@@@@@@@@@@+++#:++:#+++@@@@@@@@@@X<----",
"-----<@@+@++@@@@@@,,,,,,>,;;;;;;;;;;;;;;;;;;+@X;;;;;;;++X@@@@@@@@@@@@+++++++++@@@@@@#:@:#@@@@@@@@@@@@@X<----",
"-----<@@@@@@+++++@,,,,,,>>,;;;;;;;;;;;;;;;;;+@X;;;;;;X+X++++++XXXXXXXXXXXXXXX@@@++++#$#$#++++++++++++XX<----",
"-----<@+++++++@@@@,,,,,>>>>;;;;;;;;;;;;;;;;;+@X;;;;;X+X@@@XXXXXXX++++XXXXXXXX+++++@@##:#@@@@@@@@@@@@@+X<----",
"-----<@+@@@+@@++++,,,,,>>>>;;;;;;;;;;;;;;;;;+@X;;;;@+++XXXXXXXXXXXXXXXXXXXXX@@@@@@++##:#+++++++++++++XX<----",
"-----<@@++++@@@@@+,,,,,>>>>;;;;;;;;;;;;;;;;;+@X;;;@X+XXXXXXXXXXXXXXXXXXXXXX++++@@@@@@#$#+@@@@+++@@@+XXX<----",
"-----<@@+++++++++,,,,,,>>>>;;;;;;;;;;;;;;;;;+@X;;+++X+XXX@XXXXXXXXXXXXXXXXX++++++++++#$#@++++++++++XXXX<----",
"-----<+++XX++++++,,,,,>>>>>;;;;;;;;;;;;;;;;;@+X;++++X+XXXXXXXXX+XXXXXXXXXXXXXXX++++++$#++++++++++XXXXXX-----",
"------XXXXXX++++X,,,,,>>>>>;;;;;;;;;;;;;;;;;@+X++X+XXXXXXXXX++++++++++++XXXXXXXX++++X###XXXXXXXXXXXXXX<-----",
"------<<<<XXXXXXX,,,,,>>>>>;;;;;;;;;;;;;;;;;@+XXX++X++++++++XXXXXXXXXXXXXXXXXXXXXXXXX$##XXXXXXXXXXXXXX<-----",
"-------<@@@@@@@@,,,,,,>>>>>>;;;;;;;;;;;;;;;@++X+X+XXXXXXXXX+++++++++XXXX@@@@@@@@+++@@$#++++@@@@@@@@+++<-<---",
"-------<@@@@@@@@,,,,,>>>>>>>;;;;;;;;;;;;;;;+++X@+X+++++++++XXXXXXXXXXXX+++++++++@@@@@#:@@@@++++++++@@@X<<---",
"-------<@+@@@+++,,,,,>>>>>>>;;;;;;;;;;;;;;@@++X#+XXXXXXXXXXXXXX++++++X+++++++@@+++++++$#++@@@@@@@@@@@@X<----",
"-------<@@@@@@@@,,,,>>>>>>>>;;;;;;;;;;;;;+++@+X$XXXXX++++++X+++XXXXXXX@@@++++++@@@@@@@#:@@+++++++++++XX<----",
"-------<@@@+++++,,,,>>>>>>>>;;;;;;;;;;;;@@@@:#+#XXXXXXXXXXXXXXXX+++++@@@@@@@@@@++++++++$#+++++@@@@@@XXX<----",
"-------<@@@@+++@,,,>>>>>>>>>;;;;;;;;;;;;+++:$$$#XXXXXXX+++++++++XXXXX++++++++++@+++@@@@#:@+@@@+++++X++@<----",
"-------<+@@+++++,,,>>>>>>>>>;;;;;;;;;;;++XX:#+X$XXXXXXXXXXXXXXXXXXXXX@@@@@+++++++++++++#:++++++@@@++@@X<----",
"-------<++XX++++,,>>>>>>>>>>;;;;;;;;;;XXX++$++X#++XX+XXXXXXXXXXXXXXX++++++@@@@+++++++@@@$#@@@@@++XXXXXX<----",
"-------<XX++++++,,>>>>>>>>>>>;;;;;;;;++++++#+XX#XXXXXXX+XXXXXXXXXXXX++++++++++++++++++++#$+++++XXXXXXXX<----",
"-------<XXXXXXXX,,>>>>>>>>>>>;;;;;;;;XXXXXX+++#++++++++++++XXXXXXXXXXXXX++++++XXXXXXXXXXX$#XXXXXXXXXXXX<----",
"------<<<<XXXXXX,,>>>>>>>>>>>;;;;;;;XXXXXX++X$XXXXXXXXXXXXXXX+++++++XXXXXXXXXXXXXXXXXXXXX#$XXXXXXXXXXX<<----",
"-----<@@@@@@@@@@>,>>>>>>>>>>>;;;;;;;+++++X+X++X@@@@+++++++++XXXXXXX+++++++++++++@@@@@@@$:@@@+++++++++++-----",
"-----<@@@@@@@++++,>>>>>>>>>>>;;;;;;@@@@++++@++X++++XXXXXXXXX++++++X@@@@@@@@@@@@@+++++++:$+++@@@@@@@+@@@X<---",
"-----<@@@@@+@@@++>>>>>>>>>>>>;;;;;+++++@++X++@X+@@@@XXXXXXXXXXXXXXX+++++++++++@@@+++@@@:$@@@+++++++++++X<---",
"-----<@@++++@@@@@>>>>>>>>>>>>;;;;;@@@@+++X++@+X@@+@@@XXXX++++XXX+++@@@+++++++++@@@@@+++:$@@@@@@@@@@+++XX<---",
"-----<@+@@@++++++>>>>>>>>>>>>;;;;+++++@++X@@@+X++@+++X+++XXXXXXXXXX+++++@+@@@@@++++++++$#$+++++++++@@@+X<---",
"-----<@+++++@@@@++>>>>>>>>>>>;;;;@@@++X+X+++++X@@@@@@@XXX++++++++X@@@+++++++++@@@@@@++:#@$@@+++@@@@++XXX<---",
"-----<@+XXX+++++@@>>>>>>>>>>>>;;++++@@++@@@@++X+++++++XXXXXXXXXXXX+++++XXX++++++++++@@:#+$+++++++++@+++X<---",
"-----<X++++X@@@@++$>>>>>>>>>>>;;+++++++X++++++XX@@@@@@XXXXXXXXXXXX++++++++++++++@@@@++:#@#@@@@@@++++XXXX<---",
"-----<+XXXX++++++$#>>>>>>>>>>>;;XXXXX+X+++++@+X++++++XXX++XXXXXXXX++++++XXXXXX++++++++:#++$++++++XXXXXXX<---",
"-----<XXXXXX+++X$#X$>>>>>>>>>>;;XXXX++XXXXXX@+X+++++X++XXXXX++++XXXXXXXXXXXXXXXX+++XXX$#XX$XXXXXXXXXXXXX<---",
"-----<<<<XXXXX$$##X#>>>>>>>>>>;;XXX++XXXXXXX+@XXXXXXXXXXXXX+++++XXXXXXXXXXXXXXXXXXXXXX$#XX#XXXXXXXXXXXX<<---",
"-----< <@@@@@@@$::#++>>>>>>>>>>++++++@@@@@@@+@X++++XXX@@++++XXXX@@@@@@@@@@@@@@@@++@@@@+:#+@$@@@@@@@@ <<<----",
"------<@@@@+++++@#:#+>>>>>>>>>>++@++X@@@@@@@++X+++++++@@@++@@X++@@@@@+++++++@@++++++@@@:#@@#@@@@@@@+X<------",
"------<@@@@@@@++++#:#+>>>>>>>>>@@X+X++++++++@+X@@XXX+++++@@+++XX+++++@@@++++++@@@@+++++:#+$++++++++XX<------",
"------<@@@++@@@@@@@##+>>>>>>>>>+@++@@@@+++@@@+X++XX@@@@@@+++++XX@@@@@@@@@@@@@@++@@@@@@@$#+#++@@@@@@+X<-----<",
"--<---<@@+++++@@@@@@:#$>>>>>>>>@++X@@@+@@+++@+X@XXX+@@@@@@@+@@@+++++++++++++++@@++@@@@@@:#@@@++++++XX<-----<",
"--<---<+XXX++++++++XX:#+>>>>>>>++++++++++@@@++XXXX+++++++XX++++++++++++++++@@@@++++++++X:#++++++XXXXX<------",
"------<X+++X+++XX++++#$#+>>>>>>++X++++++++++++XXX++++XX+++++++++@@@@@@@@@++++++++++XX+++:#++++@@@+++X<------",
"------<XXX++XXX+@@@@@$#$#@>>>>>XXXX+++++++++XXX+XXXXX+@@@@@@@@@@+++++++++@@@@+++XXX+@@@@$#@@@@+++XXXX<------",
"------<X++XX++XX+++++$#+$+++>>>>+++++++++++++XXX++++XX++++++++++++++++++++++++++++XX+++$##++++XXXXXXX<------",
"------<<XX++XXXXX$#XX##X#$XXX>>>XXXXXXXXXXXXX+++XXXXXXXXXXXXXXXXXXXXXXX++++++XXXXXXXXXX#X#XXXXXXXXXX<<------",
"-----<@@@@@@@@@@@@:#@@@@@+++++>>++++++++++++@@@@@@@@@@@@@@@@@@@+++++++++++++++++@@@@@@@:#@@@@++++++++@<-----",
"-----<@@+@@@++++++#:+++@@@@@@@@+++++@@++@@@@@++++++++++++++++@@@@@@@@@@@@@@@@@@@+++++++$#++@@@@@@@@@@@X<----",
"-----<@@@+++@@@@@@#:@@@@@@@@@++@@@@+++@++++++++@@@@@@@@@@@@@@@@@@@@++++++++++@@@@@@@@@@#:@@@@@@@@+++++X<----",
"-----<@++@@@++++@++:#+++++++++++++++++++@@@@@@@+++++++@++++++++++++++++@@@@@@@@@++++@+++:#+++++++++@@@X<----",
"-----<@@@+++@@@@@@@:#@@@@@@@@@@@+@@@@@+++++++++@@+@@@@@@@@@@@@@@@@@@@@+++++++++@@@@@@@@@:#@@@@@@@@@++XX<----",
"-----<@++@@++++++++$#+++++++++++++++++@@@@@@@@+++@++++++++++++++++++++++@+@@@@@+++++++++$#+++++++++@@+X<----",
"-----<++X++X@@@@+++#$@@@+++@@@@@@@@@++++++++++@@@@@@@@++++@@@@+++@@@@+++++++++@@@@@@++++#:@@+++@@@@+XXX<----",
"---<-<X++XX+++++@@@#$++++XX+++++++++@@@@@@@@@+++++++++@@@@+++++XX++++++XXX++++++++++@@@@#:+++XX++++@++X<----",
"---<-<XXXX++@@@@++++##@@@@@@++++++++++++++++++++@@@@@@++++@@@@@@@@++++++++++++XX@@@@++++@$#@@@@@++XXXXX<----",
"-----<XXXXXX+++XXXXX##XXXXXXXXXXXXXXXXXXXXXXXX+++++++XXXXXXXXXXXXXXXXXXXXXXXXXXX+++XXXXXX$#XXXXXXXXXXXX<----",
"-----<<<<XXXXXXXXXXX##XXXXXXXXXXXXXXXXXXXXXXXXXXXXXXXXXXXXXXXXXXXXXXXXXXXXXXXXXXXXXXXXXXX##XXXXXXXXXXX<<----",
"-----<@@@@@@@@@@@@++#:@@@@@@@@@++++@@@@@@@@@@+++++++@@@@++++@@@@@@@@@@@@@@@@@@@@++@@@@+:#+@@@@@@@@@+@@X-----",
"-----<@@@@+@@@@@@@@@#:+++++++++@@@@++++++++++@@@@@@@@@@@@@@@++++++++++++++++++++@@@@@@@:$@+++++++++@+++<----",
"-----<@@@@@@++++++++#:#@@@@@@@@@@@@@@@@@@@@@@@@@@++++++++++@@@@@@@@@@+++++++@@+++++++++$:@@@@@@@@@@@@@@<----",
"-----<@@@@@@@@@@@@@@#:#++++++++@@@@++++++++++++++@@@@@@@@@@++++++++++@@@++++++@@@@@@@@@#:++++++++++++OX<----",
"-----<@@@+++++++++++#$#++@@@@@@+@@@@@@@@@@@@@@@++++++++++++++++@@@@@@@@@@@@@@@+++++++++#:++++@@@@@@OO=X<----",
"-----<@@@@@@@@@@@@@@:#$#@++++++@+@@@@@+++++++++@@+++@@@@@@@+@@@+++++++++++++++@@++@@@@@#$#@@@++++++===X<----",
"-----<XX+++X++++++++:+$#++@@@@@+++++++++++++@@@@@+++++++++++++++@@@@@@@@@+++++++++++++++:#++++@@@@@+XXX<----",
"-----<+XXXX+++++@@@@$@$#@@+++++XXXX+++++++++++++++++++@@@@@@@@@@+++++++++@@XXXX+++++@@@@:#@@@@+++++@++X<----",
"-----<XX++XX++++++++$+###+XX+XX++++++++++++++XXX++++++++++++++++XX+XXX+XX+=&&&&+++++++++$#++++XX+XX+XXX<----",
"-----<XXXXXXXXXXXXXX#XX##XXXXXXXXXXXXXXXXXXXX+++XXXXXXXXXXXXXXXXXXXXXXX++++===+XXXXXXXXX$#XXXXXXXXXXXXX<----",
"-----<<<<XXXXXXXXX$:#XX$#XXXXXXXXXXXXXXXXXXXXXXXXXXXXXXXXXXXXXXXXXXXXXXXXXXXXXXXXX$:XXXX$#XXXXXXXXXXXX<<----",
"----<@@@@@@@@@@@@@@$#@@:++++++++++++++++++++@@@@@@@@@@@@@@@@@@@+++++++++++++++++@@@$#@@$#@@@@++++++@@@+X<---",
"----<@@@++@@+++++++#:++:@@@@@@@+++++@@++@@@@@++++++++++++++++@@@@@@@@@@@@@@@@@@@+++#:++:#++@@@@@@@@+@@@@<---",
"----<@@@@@++@@@@@@@#:++$++++@++@@@@++++++++++++++@@@@@@@@@++++++++@+++@@@++++@@@@@@@$#@:#+++++++@++++++X<---",
"----<@@++@@@++++++++:#@#++++++++++++++++@@@@@@@+++++++++++@@@@++++++++@@@@@@@@@@++++#:+:#@@@+++++++@@++X<---",
"----<@+XX+++++++++++$#+#++++++++++++++@@@@@@@@+++@++++++++++++++++++++++@+@@@@@++++++$#:#+++++++++++++XX<---",
"----<@@+@@++@@@@++++#:#@+++@@@@@@@@@++++++++++@@@@@@@@++++@@@@+++@@@@+++++++++@@@@@@+#:$#@@@+++@@@@@@++@<---",
"----<X++++XX++++@@@@#$#+++++++++++++@@@@@@@@@+++++++++@@@@+++++++++++++XXX++++++++++@@$$#++++++++++++XXX<---",
"----<+XXXX++@@@@++++#$#@@@@@++++++++++++++++++++@@@@@@++++@@@@@@@@++++++++++++++@@@@++#$#@@@@@@@+++@@++X<---",
"----<X++++XX+++++++++#$++++++++XXXXXXXX+++++++++++++++++++++++++++++++++XXXXXX+++++++++$#+++++++++++XXXX<---",
"----<XXXXXXX+++XXXXXX#$XXXXXXXXXXXXXXXXXXXXXXX+++++++XXXXXXXXXXXXXXXXXXXXXXXXXXX+++XXXX$#XXXXXXXXXXXXXXX<---",
"-----<<<<XXXXXXXXXXXX###XXXXXXXXXXXXXXXXXXXXXXXXXXXXXXXXXXXXXXXXXXXXXXXXXXXXXXXXXXXXX#:##$XXXXXXXXXXXXX<----",
"-------<@@@@@@@++@@+++$#+++++++++++++++++++++++++++++++@@+++@++++++++++++++++++++++++:#+++@++++++++<<<<-----",
"-------<@@@@@@@@++++++:#@@+++@@@@@@@@@++@@@@@++++++++++++++++@@@+++@@@@@@@@@@@@@+++++:#++++@@@+++@@X<<<-----",
"-------<@@@@++@@@@++++:#@@+++++X++++++++@@@@@@@+++++@@@@+++++@@@++++++@@@@@@@@@@++@@@:#++++@@@+++++X<-<-----",
"-------<@@++@@++++@@@#:@@@@@@@@@+@@@@@@@@@@++++@@@@@++++@@@@@@@@@@@@@@++++++++++@@+++$#@@@@@@@@@@@@X<-------",
"-------<@@+@+++++++++#$+++++++++++++++@@@@@@@@@@+@++++++++++++++++++++++@+@@@@@++++++:#+++++++++++XX<-------",
"-------<@+++@@@@++++@:#@+++@@@@@@@@@++++++++++@@@@@@@@++++@@@@+++@@@@+++++++++@@@@@@+$++@@@@+++@@@+X<-------",
"-------<X+XX++++@@@@+:#+++++++++++++@@@@@@@@@XX+++++++@@@@+++++++++++++XXX++++++++++$#@@++++++++XXXX<-------",
"-------<+X++@@@@++++@$#@@@@@++++++++++++++++++++@@@@@@++++@@@@@@@@++++++++++++++@@@@:#++@@@@@@@@++XX<-------",
"-------<XXXX++++++++$#+++++++++XXXXXXXX+++++++++++++++++++++++++++++++++XXXXXX++++++$#++++++++++XXXX<-------",
"-------<X++++++XXXXX$#XXXXXXXXXXXXXXXXXXXXXXXX+++++++XXXXXXXXXXXXXXXXXXXXXXXXXXX+++X$#XXXXXXXXXXXXXX<-------",
"------<<<XXXXXXX$:$#$#XX::$##XXXXXXXXXXXXXXXXXXXXXXXXXXXXXXXXXXXXXXXXXXXXXXXXXXXXXXX#$#XXXXXXXXXXXX<<-------",
"-----<@@@@@@@@@@@@#:#@+:$##++++@@@@++++++++++@@@@@@@+++++++@+++++++++++++@@@++++@@++#:##+@+++++++++<--------",
"-----<@@@@@++++++@@#:#:##++++@@++@@@@@@@@@@@++++@++++++@@@@@@++++++@@@@@@+++@@++++++:#$#@@@++++++@@@<-------",
"-----<@@@@+@@@@@+++++:$#@@@@+++@++++++++++++++++++@@@@+++++++@@@@@+++++++@@@++@@@@@:#+#:+++@@@@@++XX<-------",
"-----<@@@@@+++++@@@+:##:@@@@@@@+@@@@@@@@@@@@@@@+++++++@@@+++++@@@@@@@@@@@@@@@@+++++$@@#:#+++@@@@@@+X<-------",
"-----<@+++++@@@@@@@@$@@$#++++++@@@@@@@@+++++++@@@@@@@@@@@@@@@@@+++++++++++++++@@@@:#@@@:#@@@@+++++XX<-------",
"-<--<<@@@@@@@@@@@@@:#+++:#++++++++++++@@@@@@@@@+++@@@@@@@@@++++++++++++++++@@@@+@@$@@@@$#++++++++XXX<<------",
"-<--<<<++++++++@@++:#++++$#@@@@XX+++++++++++@@@@@++++@@+++++++++@@@@@@@@@++++++++$#@@++#$+++++@@@++<<<------",
"----<<<<X+++++++@@@$@@@@@#$+++++XXX+++++++XXX+++++++++@@@@@@@@@@+++++++++@@@@++++$++@@@#$#@@@@++XX<<<<------",
"----<<<<<<<<<<<<<<<<<<<<<<<<<<<<<<<<<<<<<<<<<<<<<<<<<<<<<<<<<<<<<<<<<<<<<<<<<<<<<<<<<<<<<<<<<<<<<<<<<<------",
"----<<<<<<<<<<<<<<<<<<XX<<<<<<<<<<<<<<<<<<<<<<<<<<<<<<<<<<<<XXXXX<<<<<<<<<<<<<<<<<<XXXX<<<<<<<<<<<<<<<------",
"----<<<<<<-<<<--<<<<<%OO%O<<--<<<----<<<<-----<<<<<<<<<---<<<<<<<------<<<<<<<<<<XX=%O%XX<<<<<<<<<<<<<------",
"-----<<<<-----------X=%%O%X---------------------------------------------------<--<=%=%O%<-------<<<<<<------",
"-----<<<<-----------X%OOO%X-----------------------------------------------<<<<---X%O%%O%X------<-<<<<<------",
"-----<<<<-----------XX%%%X--------------------------------------------------------X%OO%X---------<<<<<------",
"-----<<<<-------------XXX----------------------------------------------------------XXXX----------<<<<<------",
"<----<<<<-----------------------------------------------------------------------------------------<<<<------",
"-----<<<<---------------------------------------------------------------------------------------<-<<<<------",
"----< <<<------------------<--------------------------<------------<----------------------------<-<<<-<-----",
"----< <<<----------<----------<--<-<------<---<-----<----------<-------<-------------------------<<<<-<-----",
"----< << <---------------------------<--<--------------------<------------------------------------<<<-------",
"-----<<< <-----------<--------------------------------------<-------------------------------------<<<<------",
"------<< <-----------------------------------------------------------------------------------------<<-------",
"------<<<------------------------------------------------------------------------------------------<<-------",
"-------<-------------------------------------------------------------------------------------------<--------",
"-------<-------------------------------------------------------------------------------------------<--------",
"-------<-------------------------------------------------------------------------------------------<--------",
"-------<-------------------------------------------------------------------------------------------<--------",
"-----------<------------------------------------------------------------------------------------------------",
"------------------------------------------------------------------------------------------------------------",
"------------------------------------------------------------------------------------------------------------",
"----<-------------------------------------------------------------------------------------------------------",
"---------<--------------------------------------------------------------------------------------------------"
};
