/* XPM */
static char *_70fc4cfd4dd488c94d73c2a5c5bb2c0[] = {
/* columns rows colors chars-per-pixel */
"107 125 19 1 ",
"  c None",
". c #745133",
"X c #745233",
"o c #9C703A",
"O c #9D713B",
"+ c #916640",
"@ c #AD7842",
"# c #A78B4A",
"$ c #A78C4A",
"% c #BFA76F",
"& c #C38B48",
"* c #D8A964",
"= c #D9AA64",
"- c #449ECC",
"; c #B78A81",
": c #D6BF82",
"> c #CBA093",
", c #DAAD96",
"< c white",
/* pixels */
"---------<-------------------------------------------------------------------------------------------------",
"----<------------------------------------------------------------------------------------------------------",
"-----------------------------------------------------------------------------------------------------------",
"-----------------------------------------------------------------------------------------------------------",
"-----------<-----------------------------------------------------------------------------------------------",
"-------<-------------------------------------------------------------------------------------------<-------",
"-------<-------------------------------------------------------------------------------------------<-------",
"-------<-------------------------------------------------------------------------------------------<-------",
"-------<-------------------------------------------------------------------------------------------<-------",
"------<<<------------------------------------------------------------------------------------------<<------",
"------<< <-----------------------------------------------------------------------------------------<<------",
"-----<<< <-----------<--------------------------------------<-------------------------------------<<<<-----",
"----< << <---------------------------<--<-----------------X, <------------------------------------<<<------",
"----< <<<----------<----------<--<-<------<---<-----<----@+,,--<-------<-------------------------<<<<-<----",
"----< <<<------------------<--------------------------<--@+>,,-----<----------------------------<-<<<-<----",
"-----<<<<------------------------------------------------@+;,,>---------------------------------<-<<<<-----",
"<----<<<<-------------------------------------------------@+>,,>----------------------------------<<<<-----",
"-----<<<<-------------------------------------------------@+;,,>>--------------------------------<<<<<-----",
"-----<<<<-------------------------------------------------@+X,,,>>-------------------------------<<<<<-----",
"-----<<<<------------@++@---------------------------------@+X>,,>>>-------<<<<-----+@+@--------<-<<<<<-----",
"-----<<<<-----------+@++@+---------------------------------@+X,,>>>-----------<--<@+@+@+<-------<<<<<<-----",
"----<<<<<<-<<<--<<<-+@+@++----<<<----<<<<-----<<<<<<<<<---<@+X>,,>>>---<<<<<<<--<+@+@++++<-<<<<<<<<<<<<----",
"----<<<<<<<<<<<<<%::%$$@++X<<<<<<<<<<<<<<<<<<<<<<<<<<<<<<< @+X;,,>>><<< <<< <<<<<%$+++$:%<<<<<<<<<<<<<<----",
"----<<@@@@@@@@@@@@@@$:%@@:%+++++++++++++++++@@@@@@@@@@@@@@@@+X;,,>>>>++++++++++@@@:$@@:$@@@@@+++++@@X<<----",
"----<@@@@@@@++++++++++::%$$@@@@@@@@@@@++@@@@@++++++++++++++@@+X;,>>>>>@@@@@@@@@+++$:++:$+++@@@@@@@@@@X<----",
"-<--<@@+@++@@@@@@@@@:%$$$$@@@@@@@@@+++@++++++++@@@@@@@@@@@@@@+X;,,>>>>+++++++@@@@@@$:@:$@@@@@@@@@@@@@X<<---",
"-<--<@@@@@@+++++@++:%$$+$%$+++++++++++++@@@@@@@+++++++@++++@@+X;,,>>>>>@@@@@@@@++++$%$%$++++++++++++XX<<---",
"---<<@+++++++@@@@@@%$@@@@$:@@@@@++@@@@+++++++++@@++@@@@@@@@@@+X;>,>>>>>>+++++++++@@$$:$@@@@@@@@@@@@@+X<<---",
"---<<@+@@@+@@+++++:$++++++:$++++++++++@@@@@@@@+++@@++++++++@X@+X>,>>>>>>>+@@@@@@@++$$:$+++++++++++++XX<<---",
"---<<@@++++@@@@@++%$@@@@++:$@@@@@@@@++++++++++@@@@@@@@++++@@@@+X;,>>>>>>;+++++@@@@@@$%$+@@@@+++@@@+XXX<<---",
"---<<@@+++++++++@:$@++++++%$++++++++@@@@@@@@@+++++++++@@@@++@@+X;,,>>>>>>X++++++++++$%$@++++++++++XXXX<----",
"---<<+++XX+++++++%$+++++++%$+++XXXXXXXX+++++++++++++++++++++@@+X;;,>>>>>>>XXXX++++++%$++++++++++XXXXXX<----",
"---<<XXXXXX++++X%$XXXXXXXX%$XXXXXXXXXXXXXXXXXX+++++++XXXXXX@@@+X;;,>>>>>;>>XXXX++++X$$$XXXXXXXXXXXXXX<-----",
"---<<<<<<XXXXXXX$$XXXXX%$X$$XXXXXXXXXXXXXXXXXXXXXXXXXXXXXXX@@X@+X;,>>>>>;;>XXXXXXXXX%$$XXXXXXXXXXXXXX<-----",
"---<<-<@@@@@@@@@@@:$++%$@@@@@@+++++@@@@@@@@@@+++++++@@@@+++@+X@+X;;,>>>>>;>>@@@+++@@%$++++@@@@@@@@+++<-----",
"---<--<@@@@@@@@@@@$:@@:$++++++@@@@@++++++++++@@@@@@@@@@@@@@@+X@+X;;,>>>>;>>>+++@@@@@$:@@@@++++++++@@@X<----",
"---<-<<@+@@@+++++++:$@:$@@@@@@++++@@@@@@@@@@@@@@@++++++++++@+X@+X;;,>>>>;>>>>@+++++++%$++@@@@@@@@@@@@X<---<",
"---<-<<@@@@@@@@@@@@%$+:$++++++@@@@@++++++++++++++@@@@@@@@@@++X;@+X;;,>>>;>>>>>@@@@@@@$:@@+++++++++++XX<----",
"-----<<@@@+++++++++$:+:$+@@@@@++@@@@@@@@@@@@@@@+++++++++++>@+X;@+X;;,>>;>>>>>>++++++++%$+++++@@@@@@XXX<<---",
"-----<<@@@@+++@@@@@@:$:$@+++++@@++@@@@+++++++++@@+++@@@@>>>@@X;@+X;;,>>;>>>>>>@+++@@@@$:@+@@@+++++X++@<<---",
"-----<<+@@++++++++++%$%$++@@@@++++++X+++XX++@@@@@++++++>>>;@+X;@+X;;;,>;>>>>>>>+++++++$:++++++@@@++@@X<<---",
"-----<<++XX+++++@@@@%$%$@@++++XXXXX++XXX+++++++++++++>>>>>;@+X;X@+X;;,>;>>>>>>>+++++@@@%$@@++@++XXXXXX<<---",
"-----<<XX+++++++++++$%$$+++++++++++++++++++++XXX+++>>>>>>;;++X;;@+X;;>;,>>>>>>>>+++XXXX$%XXXXXXXXXXXXX<<---",
"------<XXXXXXXXXXXXXX%$$XXXXXXXXXXXXXXXXXXXXX+++XX>>>>>>>;;++X;;@+X;;;,>>>>>>>>>XXXXXXXX%$XXXXXXXXXXXX<----",
"-----<<<<XXXXXXXXX%$X$%$XXXXXXXXXXXXXXXXXXXXXXX+X;>>>>>>>;;++X;;@+X;;;>>>>>>>>>>XXXXXXXX$$XXXXXXXXXXX<<-<--",
"----<@@@@@@@@@@@@@:$@@@@@+++++++++++++++++++@@@@+X>>>>>>;;;++X;;X@+;;;,>>>>>>>>>>+++++$$+++XXXX+++++++--<--",
"----<@@@@@@@++++++:$++++++@@@@@@@@@@@@++@@@@@++@++;>>>>>;;;@+X;;;@+X;;,>>>>>>>>>>XXXXX$$XXX++++@@@+@@@X<---",
"---<<@@@@@+@@@++++:$@@@@@@++++++++++++@++++++++@@+X>>>>>;;;@+X;;;@+X;;,>>>>>>>>>;;X+++%$+++XXXX+++++++X<---",
"---<<@@++++@@@@@@@:$++++++@@@@@+@@@@@+++++++++@@X@+X>>>>;;;@+X;;;@+X;;,>>>>>>>>>;;+XXX$$++++++++@@+++XX<---",
"---<<@+@@@+++++++$%$+++++++++++++++++@@@@@@@@+++@X@+;>>>>;;@+X;;;X@X;;,,>>>>>>>>;;;XXX$$$XXXXXXX++@@@+X<---",
"---<<@+++++@@@@++:$$@@@+++@@@@@@@@@++++++++++@@@@@@+X;>>>;;@+X;;;X@+X;,,>>>>>>>>;;;XX$$+%++XXX++@@++XXX<---",
"---<<@+XXX+++++@@:$$+++++++++++++++@@@@@@@@@+++++++@+X>>>>;+@X;;;;@+X;,,>>>>>>>>>;;++%$X$XXXXXXX++@+++X<---",
"---<<X++++X@@@@++%%$@@@@@@@++++++++++++++++X++X@@@@@@++>>>;+@X;;;;@+X;,,>>>>>>>>>;;;X%$+$++++++X+++XXXX<---",
"---<<+XXXX++++++%$%$++++++++++XXXXXXXX++++++XX++++++X@X+;>>+@X;;;;@+X;,,>>>>>>>>>;;;X$$XX$XXXXXXXXXXXXX<---",
"----<XXXXXX+++X%$X%$XXXXXXXXXXXXXXXXXXXXXXXXX+++++++X@+XX;;+@X;;;;X@+X,,>>>>>>>>>;;;X$$XX%XXXXXXXXXXXXX<---",
"----<<<<XXXXX%%$$X$$XXXXXXXXXXXXXXXXXXXXXXXXXXXXXXXXXX@+XX;@+X;;;;;@+X;,>>>>>>>>>;;;X$$XX$XXXXXXXXXXXX<<---",
"------<@@@@@@@%::$+++$$@@@@@@@++++@@@@@@@@@@+++++++@@@X@X++@+X>;;;;@+X;,>>>>>>>>>;;;+X%$X+$++++++@@ <<<----",
"-----<@@@@+++++@$:$+@:$@@@@@@@++@@@@@@@@@@@++++++++++@X+@+@@+X;>;;;@+X;,>>>>>>>>>;;;++%$++$++++++@+X<<<----",
"-----<@@@@@@@++++$:$+:$+++++++@@@@+++++++++@@@@@@@@++++X@X+++XX;>;;X@+X,>>>>>>>>>;;;;X$$X$XXXXXXX+XX<<-----",
"----<<@@@++@@@@@@@$$+:$+@@@@@@+@@@@@@@+++@@++++++@@@@@@@X@+++X++;>;;@+X,>>>>>>>>;;;;;+$$X$XX+++++@+X<<-----",
"----<<@@+++++@@@@@@:$%$@++++++@+@@@@@+@@++++++@@+++@@@@@@+$++XXXX;>;@+X,>>>>>>>>;;;;;++%$+++XXXXX+XX<<-----",
"----<<+XXX++++++++XX:$++++++++++++++++++@@@+++++++++++++XX%++@XXXX>;@++,>>>>>>>>;;;;;XX%$XXXXXXXXXXX<<-----",
"----<<X+++X+++XX++++$%$++@@@@@+++++++++++++@@@@@++++XX++++$+$:++++;;X@+,>>>>>>>>;;;;;XX$$XXXX+++X++X<<-----",
"----<<XXX++XXX+@@@@@%$%$@+++++XXXX+++++++++++++XXXXX+@@@@@$%%%:XXXX;X@+,>>>>>>>>;;;;;++$$++++XXXXXXX<<-----",
"----<<X++XX++XX+++++%$+%++++++++++++++++++++XXX++++XX+++++%X+$:XXXX;;@+,>>>>>>>>;;;;;X$$$XXXXXXXXXXX<------",
"-----<<XX++XXXXX%$XX$$X$%XXXXXXXXXXXXXXXXXXX+++XXXXXXXXXXX$X@+%XXXXX;@+,>>>>>>>;;;;;;X$X$XXXXXXXXXX<<------",
"----<@@@@@@@@@@@@:$@@@@@+++++++++++++++++++@@@@@@@@@@@@@@@$XX@$++XXXXX@,>>>>>>>;;;;;++%$++++XXXXX+++@<-----",
"----<@@+@@@++++++$:+++@@@@@@@@+++++@@++@@@@@+++++++++++++++$+@+@@+++++@,>>>>>>>;;;;;XX$$XX++++++@@@@@X<----",
"----<@@@+++@@@@@@$:@@@@@@@@@++@@@@+++@++++++++@@@@@@@@@@@@@+%X@+@@XXXX@,>>>>>>;;;;;;++$%+++++++++++++X<----",
"---<<@++@@@++++@++:$+++++++++++++++++++@@@@@@@+++++++@+++++@+XX@X++XXXX,>>>>>>;;;;;;XXX%$XXXXXXX++@@@X<----",
"---<<@@@+++@@@@@@@:$@@@@@@@@@@@+@@@@@+++++++++@@+@@@@@@@@@@@+X@@+@@++XX,>>>>>>;;;;;++++$$+++++++@@++XX<<---",
"---<<@++@@++++++++%$+++++++++++++++++@@@@@@@@+++@+++++++++++@X+X@+++XXX,>>>>>>;;;;;XXXX$$XXXXXXX++@@+X<<---",
"---<<++X++X@@@@+++$%@@@+++@@@@@@@@@++++++++++@@@@@@@@++++@@@+X++@+@@XXX,>>>>>;;;;;;XXXX$%++XXX+@@@+XXX<<---",
"---<<X++XX+++++@@@$%++++XX+++++++++@@@@@@@@@+++++++++@@@@++@+XXXX@++XXX,>>>>>;;;;;X++++$%XXX++X+++@++X<<---",
"---<<XXXX++@@@@++++$$@@@@@@++++++++++++++++++++@@@@@@++++@@@+X@@@X@++XX,>>>>>;;;;;+XXXX+$$+++++++XXXXX<<---",
"----<XXXXXX+++XXXXX$$XXXXXXXXXXXXXXXXXXXXXXXX+++++++XXXXXXX+@XXXXX@+XXX>,>>>;;;;;XXXXXXX$$XXXXXXXXXXXX<<---",
"----<<<<XXXXXXXXXXX$$XXXXXXXXXXXXXXXXXXXXXXXXXXXXXXXXXXXXXX+@XXXXXX@+XX>,>>>;;;;;XXXXXXX$$XXXXXXXXXXX<<--<-",
"-<--<@@@@@@@@@@@@++$:@@@@@@@@@++++@@@@@@@@@@+++++++@@@@++++@+X@@@@@X@XX>,>>>;;;;X++++X$$X+++++@@@@+@@X---<-",
"-<--<@@@@+@@@@@@@@@$:+++++++++@@@@++++++++++@@@@@@@@@@@@@@@@+X++++++@+X>,>>>;;;+++++++%$+XXXXX++++@+++<----",
"---<<@@@@@@++++++++$:$@@@@@@@@@@@@@@@@@@@@@@@@@@++++++++++@+@X@@@@@@X@+X,>>;;;;XXXXXXX$%++++++@@@@@@@@<<---",
"---<<@@@@@@@@@@@@@@$:$++++++++@@@@++++++++++++++@@@@@@@@@@++@X++++++X@+X,>>;;;++++++++$%XXXXXX++++++oX<<---",
"---<<@@@+++++++++++$%$++@@@@@@+@@@@@@@@@@@@@@@+++++++++++++++X@@@@++++@+,>;;;;XXXXXXXX$$XXXX+@@@@@oo*X<<---",
"---<<@@@@@@@@@@@@@@:$%$@++++++@+@@@@@+++++++++@@+++@@@@@@@+++X+++XXXXXXX,>;++++XX+++++$$$+++X+++++***X<----",
"---<<XX+++X++++++++:+%$++@@@@@+++++++++++++@@@@@+++++++++++@+X+++++++@@>,;>+++XXXXXXXXX%$XXX+@@@@@+XXX<----",
"---<<+XXXX+++++@@@@%@%$@@+++++XXXX+++++++++++++++++++@@@@@@@+X+XXXX++++;,;>XXX+XXXX++++$$++@@+++++@++X<----",
"---<<XX++XX++++++++%+$$$+XX+XX++++++++++++++XXX++++++++++++++XXXXXXXX+XX;>++++++XXXXXXX$$X+++XX+XX+XXX<----",
"----<XXXXXXXXXXXXXX$XX$$XXXXXXXXXXXXXXXXXXXX+++XXXXXXXXXXXX++XXXXXXXXX++++XXX+XXXXXXXXX$$XXXXXXXXXXXXX<----",
"----<<<<XXXXXXXXX%:$XX%$XXXXXXXXXXXXXXXXXXXXXXXXXXXXXXXXXXXXXXXXXXXXXXXXXXXXXXXXXXXXXXX$$XXXXXXXXXXXX<<----",
"---<@@@@@@@@@@@@@@%$@@:++++++++++++++++++++@@@@@@@@@@@@@@@@@@@+++++++++++++++++@@@XXXX$$@@@@++++++@@@+X<-<-",
"---<@@@++@@+++++++$:++:@@@@@@@+++++@@++@@@@@++++++++++++++++@@@@@@@@@@@@@@@@@@@+++$XXX%$++@@@@@@@@+@@@@<<--",
"---<@@@@@++@@@@@@@$:++%++++@++@@@@++++++++++++++@@@@@@@@@++++++++@+++@@@++++@@@@@@@%XX%$+++++++@++++++X<<--",
"--<<@@++@@@++++++++:$@$++++++++++++++++@@@@@@@+++++++++++@@@@++++++++@@@@@@@@@@++++$:+:$@@@+++++++@@++X<<--",
"--<<@+XX+++++++++++%$+$++++++++++++++@@@@@@@@+++@++++++++++++++++++++++@+@@@@@++++++%$:$+++++++++++++XX<<--",
"--<<@@+@@++@@@@++++$:$@+++@@@@@@@@@++++++++++@@@@@@@@++++@@@@+++@@@@+++++++++@@@@@@+$:%$@@@+++@@@@@@++@<<--",
"--<<X++++XX++++@@@@$%$+++++++++++++@@@@@@@@@+++++++++@@@@+++++++++++++XXX++++++++++@@%%$++++++++++++XXX<<--",
"--<<+XXXX++@@@@++++$%$@@@@@++++++++++++++++++++@@@@@@++++@@@@@@@@++++++++++++++@@@@++$%$@@@@@@@+++@@++X<<--",
"--<<X++++XX+++++++++$%++++++++XXXXXXXX+++++++++++++++++++++++++++++++++XXXXXX+++++++++%$+++++++++++XXXX<<--",
"---<XXXXXXX+++XXXXXX$%XXXXXXXXXXXXXXXXXXXXXXX+++++++XXXXXXXXXXXXXXXXXXXXXXXXXXX+++XXXX%$XXXXXXXXXXXXXXX<<--",
"----<<<<XXXXXXXXXXXX$$$XXXXXXXXXXXXXXXXXXXXXXXXXXXXXXXXXXXXXXXXXXXXXXXXXXXXXXXXXXXXX$:$$%XXXXXXXXXXXXX<<---",
"------<@@@@@@@++@@+++%$+++++++++++++++++++++++++++++++@@+++@++++++++++++++++++++++++:$+++@++++++++<<<<<----",
"------<@@@@@@@@++++++:$@@+++@@@@@@@@@++@@@@@++++++++++++++++@@@+++@@@@@@@@@@@@@+++++:$++++@@@+++@@X<-------",
"-----<<@@@@++@@@@++++:$@@+++++X++++++++@@@@@@@+++++@@@@+++++@@@++++++@@@@@@@@@@++@@@:$++++@@@+++++X<<------",
"-----<<@@++@@++++@@@$:@@@@@@@@@+@@@@@@@@@@++++@@@@@++++@@@@@@@@@@@@@@++++++++++@@+++%$@@@@@@@@@@@@X<<------",
"-----<<@@+@+++++++++$%+++++++++++++++@@@@@@@@@@+@++++++++++++++++++++++@+@@@@@++++++:$+++++++++++XX<<<-----",
"-----<<@+++@@@@++++@:$@+++@@@@@@@@@++++++++++@@@@@@@@++++@@@@+++@@@@+++++++++@@@@@@+%++@@@@+++@@@+X<<<-----",
"-----<<X+XX++++@@@@+:$+++++++++++++@@@@@@@@@XX+++++++@@@@+++++++++++++XXX++++++++++%$@@++++++++XXXX<<<-----",
"-----<<+X++@@@@++++@%$@@@@@++++++++++++++++++++@@@@@@++++@@@@@@@@++++++++++++++@@@@:$++@@@@@@@@++XX<<<-----",
"-----<<XXXX++++++++%$+++++++++XXXXXXXX+++++++++++++++++++++++++++++++++XXXXXX++++++%$++++++++++XXXX<<<-----",
"------<X++++++XXXXX%$XXXXXXXXXXXXXXXXXXXXXXXX+++++++XXXXXXXXXXXXXXXXXXXXXXXXXXX+++X%$XXXXXXXXXXXXXX<<------",
"-----<<<XXXXXXX%:%$%$XX::%$$XXXXXXXXXXXXXXXXXXXXXXXXXXXXXXXXXXXXXXXXXXXXXXXXXXXXXXX$%$XXXXXXXXXXXX<<-------",
"---<<@@@@@@@@@@@@$:$@+:%$$++++@@@@++++++++++@@@@@@@+++++++@+++++++++++++@@@++++@@++$:$$+@+++++++++<--------",
"--<<<@@@@@++++++@@$:$:$$++++@@++@@@@@@@@@@@++++@++++++@@@@@@++++++@@@@@@+++@@++++++:$%$@@@++++++@@@<--<----",
"--<<<@@@@+@@@@@+++++:%$@@@@+++@++++++++++++++++++@@@@+++++++@@@@@+++++++@@@++@@@@@:$+$:+++@@@@@++XX<-------",
"--<<<@@@@@+++++@@@+:$$:@@@@@@@+@@@@@@@@@@@@@@@+++++++@@@+++++@@@@@@@@@@@@@@@@+++++%@@$:$+++@@@@@@+X<<------",
"--<<<@+++++@@@@@@@@%@@%$++++++@@@@@@@@+++++++@@@@@@@@@@@@@@@@@+++++++++++++++@@@@:$@@@:$@@@@+++++XX<<<-----",
"--<<<<@@@@@@@@@@@@:$+++:$++++++++++++@@@@@@@@@+++@@@@@@@@@++++++++++++++++@@@@+@@%@@@@%$++++++++XX<<<<-----",
"--<<<<<+++++++@@++:$++++%$@@@@XX+++++++++++@@@@@++++@@+++++++++@@@@@@@@@++++++++%$@@++$%+++++@@@++<<<------",
"--<<<<<<<<+++++@@@%@@@@@$%+++++XXX+++++++XXX+++++++++@@@@@@@@@@+++++++++@@@@++++%++@@@$%$@@@@++XX<<<<------",
"---<<<<<<<<<<<<<<<<<<<<<<<<<<<<<<<<<<<<<<<<<<<<<<<<<<<<<<<<<<<<<<<<<<<<<<<<<<<<<<<<<<<<<<<<<<<<<<<<<-------",
"------<<<<<<<<<<<<<XXXXXXX<<<<<<<<<<<<<<<<<<<<<<<<<<<<<<<<<<<<<<<<<<<<<<<<<<<<<<<<XXXX<<<<<<<<<<<<---------",
"------------------#X&oo&oX------------------------------------------------------XX*&o&XX-------------------",
"-------------------X*&&o&X------------------------------------------------------X*&*&o&X-------------------",
"-------------------X&ooo&X------------------------------------------------------X&o&&o&X-------------------",
"-------------------XX&&&X--------------------------------------------------------X&oo&X--------------------",
"---------------------XXX----------------------------------------------------------XXXX---------------------"
};
