/* XPM */
static char *obstacles1722041535[] = {
/* columns rows colors chars-per-pixel */
"128 128 60 1 ",
"  c #434343",
". c #4B4B4B",
"X c #4F5050",
"o c #535353",
"O c #585757",
"+ c #575858",
"@ c #5B5B5B",
"# c #636363",
"$ c #676868",
"% c #696A6A",
"& c #6F7070",
"* c #737474",
"= c #777878",
"- c #7B7B7B",
"; c #7F8080",
": c #449ECC",
"> c #74ADD2",
", c #848484",
"< c #888787",
"1 c #898887",
"2 c #878888",
"3 c #8C8C8C",
"4 c #91908F",
"5 c #8F9090",
"6 c #939393",
"7 c #989796",
"8 c #999897",
"9 c #979898",
"0 c #9C9C9C",
"q c #A1A09F",
"w c #A2A2A2",
"e c #A8A7A7",
"r c #AAA8A7",
"t c #ACACAB",
"y c #B0AFAE",
"u c #B1B0AF",
"i c #B4B3B3",
"p c #B8B7B6",
"a c #BAB8B7",
"s c #BEBCBB",
"d c #C0BFBE",
"f c #C1C0BF",
"g c #ABC8DF",
"h c #C4C3C2",
"j c #C8C7C6",
"k c #CAC8C7",
"l c #CDCBCB",
"z c #D1CFCE",
"x c #D2D0CF",
"c c #D5D3D2",
"v c #D9D7D6",
"b c #DAD8D7",
"n c #DCDBDA",
"m c #D1DEE9",
"M c #E4E4E4",
"N c #E0E8EE",
"B c #ECECEC",
"V c #EFF1F3",
"C c #F2F2F2",
"Z c #FCFCFC",
/* pixels */
"::::::::::::::::::::::::::::::::::::::::::::::::::::::::::::::::::::::::::::::::::::::::::::::::::::::::::::::::::::::::::::::::",
"::::::::::::::::::::::::::::::::::::::::::::::::::::::::::::::::::::::::::::::::::::::::::::::::::::::::::::::::::::::::::::::::",
"::::::::::::::::::::::::::::::::::::::::::::::::::::::::::::::::::::::::::::::::::::::::::::::::::::::::::::::::::::::::::::::::",
"::::::::::::::::::::::::::::::::::::::::::::::::::::::::::::::::::::::::::::::::::::::::::::::::::::::::::::::::::::::::::::::::",
"::::::::::::::::::::::::::::::::::::::::::::::::::::::::::::::::::::::::::::::::::::::::::::::::::::::::::::::::::::::::::::::::",
"::::::::::::::::::::::::::::::::::::::::::::::::::::::::::::::::::::::::::::::::::::::::::::::::::::::::::::::::::::::::::::::::",
"::::::::::::::::::::::::::::::::::::::::::::::::::::::::::::::::::::::::::::::::::::::::::::::::::::::::::::::::::::::::::::::::",
"::::::::::::::::::::::::::::::::::::::::::::::::::::::::::::::::::::::::::::::::::::::::::::::::::::::::::::::::::::::::::::::::",
"::::::::::::::::::::::::::::::::::::::::::::::::::::::::::::::::::::::::::::::::::::::::::::::::::::::::::::::::::::::::::::::::",
"::::::::::::::::::::::::::::::::::::::::::::::::::::::::::::::::::::::::::::::::::::::::::::::::::::::::::::::::::::::::::::::::",
"::::::::::::::::::::::::::::::::::::::::::::::::::::::::::::::::::::::::::::::::::::::::::::::::::::::::::::::::::::::::::::::::",
"::::::::::::::::::::::::::::::::::::::::::::::::::::::::::::::::::::::::::::::::::::::::::::::::::::::::::::::::::::::::::::::::",
"::::::::::::::::::::::::::::::::::::::::::::::::::::::::::::::::::::::::::::::::::::::::::::::::::::::::::::::::::::::::::::::::",
"::::::::::::::::::::::::::::::::::::::::::::::::::::::::::::::::::::::::::::::::::::::::::::::::::::::::::::::::::::::::::::::::",
"::::::::::::::::::::::::::::::::::::::::::::::::::::::::::::::::::::::::::::::::::::::::::::::::::::::::::::::::::::::::::::::::",
"::::::::::::::::::::::::::::::::::::::::::::::::::::::::::::::::::::::::::::::::::::::::::::::::::::::::::::::::::::::::::::::::",
"::::::::::::::::::::::::::::::::::::::::::::::::::::::::::::::::::::::::::::::::::::::::::::::::::::::::::::::::::::::::::::::::",
"::::::::::::::::::::::::::::::::::::::::::::::::::::::::::::::::::::N:::::::::::::::::::::::::::::::::::::::::::::::::CVN:::::::",
":::::::::::::::::::::::::::CBN:::::::::::::::::::::::::::::::::::::n5V::::::::::::::::::::::::::VN:::::::::::::::::::VeXd:::::::",
":::::VB:::::::::::::::::::Ct.h::::::::::::::::::::::::::::::::::::n&6-B::::::::::::::::::::::::B7#zm:::::::::::::::::p<;iC::::::",
"::::B9#cm:::::::::::::::::d1,iC::::::::::::::::::::::::::::::::::l*ee0<B:::::::::::::::::::::::,5w#v:::::::::::::::::i<w;k::::::",
"::::;6w#x:::::::::::::::::u1w-k::::::::::::::::::C::::::::::::::n&ediw7<g:::::m::::::::::::::::,we&l::::::::::::::::d,ew,d::::::",
"::::;wt&l::::::::::::::::d,qq1g:::::::::::::::::dOem:::::::::::n*thvsew74C:::M;C::::::::::::::C3eew-z::::::::::::::Cp0tww-z:::::",
":::V3eew=l::::::::::::::Cpquqw;f:::::::::::::::h;w4eBC::::::::B#tdjncaww6=V:>O7#V:::::::::::::3tstwq%m:::::::::::::e6stww=z:::::",
":::3ydtww&m:::::::::::::r4drqe-z::::::::::::::v*www<.0::::::::B#ejnncawww7;:VOwqO:::::::::::::<ysseww%M::::::::::::r6stww-z:::::",
":::1yaaeww%M::::::::::::r7drqq=z::::::::::::::c,sdiw7*e:::::::M#ejbnvawwwq-Bosd0#::m#::::::::g3usstwwq%.c:::::::::uqsddtw;l:::::",
"::g3uddtwww%.c:::::::::tqddpye-z:::::sd:::::::c,ddsiw3e::::::n.3cthncawwuz=M#sdw0&M q&V::::::6tssssyewe;Oc:::::::mtwsssslqz::::j",
"::5tdadaywwt-oc:::::::mtqdddazql::::j;;y::::::l4kcdiw4wN:::::n.<jydbvawwih.=ssiww0 Ow0 ::::::5tdsdsssezaw%z::::::i0sssdalqz::::h",
"::4tadadsstzaw$x::::::p8dddadzql::::j43y:::::n;skncsp7&y:::::n.$4zehcdwyj #dssd0w0@ww0 ::::::5jhdsssdcyww%z::::::iykdadcf-z::a.3",
"::6jhddasdxiww%z::::::iikaddzd-l::a.3dy<a::::n;knnnzdi<y:::::b.$4lehcpwyk-#dssiwq0@ww0 ::::::6#kvhddciwwww*c::::qO=dkdzky-l::s<d",
"::4#kvjddxiwwww*c::::wO=azdzky-l::s<dsy<i::::b,lnnncsi3y::::Mo$$4lehcdqyk-%cdd0wqXwww0 ::::::5=%$jnkciwwww*c::::wO=;izzsw-l::a0z",
"::6=%$jnjxiwwww&c::::w@=;ilzaw-l::s7zsy<a::::b;lnnnxsi<y::::MX$$5zehzwqtz-.<bwwwqXwww0 :::::::<=;**dni0www*c::::w@=;imltw=l:j#wz",
":::1*,**sniwqww*c::::w@=;inltw-z:h#ezsy<i::::v;knnnnci7&q:::M.$$%7cwwqyz0-.-sqwqowpww0 :::::::3=;;;*hiwwww=c:::t @*;aldyw-z:f+%t",
":::3*;,;*hiwwww*c:::y @*;akdtw-l:dO%tly<p::::m,knbncdw7%7:::MX%$$7cwedtz;=.%*d7.wsssw0 :::::::3 .*;&diwwwww&n::t#$*;ilsew-l:f%*e",
":::1 .*,&hiwwwww*n::t@%=;aldtw-l:d%=ehw2p:::ko0zlbziqw7&7::Mo$$$$$<zwwul;-.%%d8.sdvsswwo::::::39q#=&hiwisew&n::e#*;;izdtw-l:f%=t",
":::39w$*&hiwisew&n::r#*;;ijdtw-l:d$=tlt,p:::ko$wzsiwqw7%7::M.%$$$%,cqtc0=.-$%*u sdvssww.:::::05wq$=&diisdew&n::t@=;;ilst6#lz%*;-",
"::q6qw$*&fiissew&b::e#*;;ijdt6$ll%*;-if2p:::ko$&tlwwwww5=e:NX%$$$%%6ltc0*o;=%%%.dbbssww.::::w6wwq$=&hiassew&n::t#*;dlsst5#lj+*;=",
":w6qww%*&hipsstw&m::r@=;slddt4$lj+=;=tf2p:::ko$$&0jwww7th0:MX&;-%$-uqbc8*.;;;# .dnbssww.:::<5wwww$*&hiasssyw&z:e@%*dlsst5$lj+*;;",
"<5wwww#*&hiassstq&z:t@$=dlddt6#lj+*;;=itp:::ko&=$7kww7ej60nO%;;;=%-u;6c0=.;;;# XZnvssww.:::60ww0w$=&diidssew&k:t#%%szyei0+lj+*;;",
"60wwww$*&hiassdtw&l:t@%%szyeu7@lj+*;;*yip:::gk#*$&ehw9ed=0v.&;;;-#=d74c0*.;;;# XZhbssecX:::jiwwww#=&hipssdyw&k:e @%slywi9+#&*;;;",
"hiqwwq$**hipdsdtw%l:t.@%dltqi8o$&&;;;=iup::::vo**$&ejwj7#O$.&;;;-%-d74c8*.;-%$ %Zsvstz5X:::*fiww*@-*hieidstw0naO O$sfisy3+ o*;;;",
"*hiww&#-&hiwisdtwqnao @%dhuay<O O*;;;*uip::::mo&;=$&8d65@  .&;;;-,uw74c0*.&-$#.&Zssec<;.:::$hiww%#-&diussstww7%  @tjdas0*+ +*;;;",
"%hiqw%@-&hiiasstww7%  @rhdddq=O O*;;;*iup::::no*;=$%6lq4# X$-;;;-<dq74c0*.%-$..%qBdz07;.:::$hiww%#-*hidssssew*  @#pkssy<%+ +*;;;",
"%hiww%#-&hipdsdatw*  O#phdsu<%O O*;;;*uip::::no&;-$7d8w4@ X&;;;-%<d006c0*.%%$ .#=Zyb00;.:::%fiww%@-&duusssdtw-  @$pksst,@.+#*;;;",
"$hiqw%#-&hiasdsstq*  @$ijdde;@ O#=;;,*uid::::mo&;=$<e<6$. o&;;;-$<awylt0* X$# .$=Zzeww0X:::%=hyw%#-&hiisssdeq*  @%pksst,O @$%=;=",
"$=hyw%#-&diidaadtw-  @%ijddt,O @$%=;=es3p:::z$o*;=$,wq4@  X&;;;-$<awuvw0*  o$.#$*ntwwww-;::%%jyw%#-&hidsssdde<O #$pkdsy;O @$%=;*",
"%%kuw%#-*hiadddaae<@ #$dhddt,O @$%*;=ts<a::n66-#;--55w6@ X%-;;,-$<awyvq,$  .$ $$&vwwww<;O::=-<jt%#-&didssssst5# #ejdsst,O @$%%=*",
"=-<hr%#-&diiaadddt4# @ehdddt,O @$$%=*us,p:n8rw<O&%,7<w<. X&;;;-%$<i<wv0-#   ..$%=Cwww0;;O::-;&ky%#--<dtisssdtq& @ikssiw;O+$$$$%w",
"-;&ky%#--<hudddddqq& #ikddtw,OO#%$$%qdr<pz35wy3o%$,730-O o&;;;-$$6vljtq-#    .-$*nwwww;;O::-;&kt%#&-&jiissddae* .ylssyw;O@%#%$$e",
"-;&ly%@&-&jutddddit* .ukidtq,O@$$%$$rdw<ph$23w9o$=5599&. o-,;-&%*707ej0-#    .-$&vwwww7;O::;;-5j,.#%$jyidaieiy<@ ylssy6=O@%%%%%e",
";;-4h;X#%%juuddyrdr<O ykddu6*@@$$$$%edw<ah#;35$o$-75w9& .%;;;-%*6*$%,u0-@    *-$%qjwwwq;O::;;;&l< #$$jyissywii5@ ykssy<%O@%#$$7d",
";;;%z< #%%huuddrqiy3# ykddy<%OO%$$$8dtq<ih@32@ o$;q00<& X&;;-%&6,$%$-w0-#   .;;$$,Bwwww;O::;;-&z< .@$jyissaaee5@ 0dssy,%O@$%$$eh",
";;;&l< .##jutddiatw4@ qdidt,%OO$%$$ehww<pCf<8@ o;65w0-# X&;;-$*9%%=$-0<%@   .;-$%;nwqww;O::;;*%li# @%0wisssspe3# -yssy,@.O$$$$eh",
";;*%zi# @%8euddddar3@ -uddt,@.@%$%$ehww<aZc&<@ .-93e9-@ X&;-&=5<---%-q-$#    ,;$#=iwwww;O::;;&ijd* @#-0isssssy6%X%essy,o O$%$%eh",
";;&uhd* @%-8uddiddy4%.%eddy,o @$%#$whww<pv<#=@  -739<%.X#-;-$*3;-;;*=0-$X   .;-$%&q3www;O::;;&khs* X#-0easssye3&X%3ysy,#oO%$$qst",
";;&ldd* .#-7qddddte4*o%3ydt,#oO$%%wstww,*- #*$O %506-@ o&;-&*5;;<6;--0-#   X*;-$#&q;www;O::;;&khs*  @-0widsstw4*o%;ti7=@.@$$$esw",
";;&kdd*  @-qqidddrw4&o%;rp7*@.@$%$edwww<   #*%@ #3w6=. o&;=&33;2905;,q;%   X;;-%%*0;www7O::-;&khs&  #-0wysssee3*o%;64*#o @%%%0iw",
"-;&kdd*  @-8quddaew3&o%;63*%o @$$$8ywww4@  #*%@ #393*  o&;=-9;,9wwq;<q6=   o;;-$%%0,4ww3&y:&&%khs*  .*<0ydsseq3&oo**&%@. .@$$0iw",
"&&%ldd*  X*38didsew4&oo**&%@. X@$%0iw73<%  .$%@ #39-$  .@--5326wwwq5,50=   o;;-%$%=7;3w,; >%%%khs*   *,3edsiew3*X #&#%o   @$%0u0",
"%$$ldd*   *;<eidiew4&o #&$$O   @$$0i8<,*O   @%X #<3=@   o&&5,9wwwww0;,5=   .$;-%$OOw;,w;- >#%ejdsq@  *;;6dstw7<*o @%%@.   X#&,,-",
"$$ekddq@  *;;7ddtw9<&X @$$@.   X@&,,-;&O    #&  o%-%o   .$,,9wwwww0q;;;=     $*%O Oe;,4;; >#$khss7O  *;;7tye7<*#  XOO.     .%# o",
"$$khdd7O  *;;7tte9<=#. .oO.     .&# o#o     X@   X#@     %7<wwwwwww0;;#@      Oo  .*;;;,# >#$jh4,O   *;;<334-&#.            oo  ",
"#%kd1,O   *;;1443-*#.            oo               ..     o,7wwwwww0-#@              @##@  >                   o-;;;;;;,@        ",
"                   o=;;;;;;;@                                      .O@$$$$$$@     O70Oo    ##@              @#;0qwwwww7;o     ..",
"#@#              @#-0wwwwww0,O     X.               oo            .@&-3353;;*   O<4hj%#oX  ;;;*.  oO      @#-;0wwwwqww<9%     @#",
";;;=.  oO      @#-;0wwwwqww<7%     @#.   @X     o#o #%.     .ooX .#=<7eye9;;*  O7sshk#%%#o 4,;wO O$*$     =;;;0wwwwww9,,#.   X%-",
"4,;w@ o%*#     =;;;0wwwwww7,,#    o%-&o  &#    O*;-,,&@o   .@%$@ X&<9wtaa9;;*  @qsdje%%%%#ow,;wOO$$-;$.   =5,;0qwwww9<5&%o   @=3",
"w,;w@o#$;;#.   =3;;0wwwww7,4&%o   @=3,# o%@   +=;<0u0$%O   o%%&# o&5weidae3;*   *shl%#%#%%#w4;7=%$$-;;o   *05,6qwww9<<5--#.  $-9",
"w5;9-%$%-;;o   =05,6wwww7<<6;-#.  #-93# @%#X  $237wi0%%#. .@$%=*oX*5wesssi03*.  *sdk%&&$%##ww4;q&$%-;;o   *6w<,0ww9,;0==;&o  *<0",
"ww5;0&%$-;;o   *6w3;0ww9,;0=*;&o  *203# @%=#  @5wqqi0$%$@ o$*55,%o&3wtdasiw9-#  *shl&;-$%%#www;0&$%-;;o   &;0,-609<;33&=;&o X=9w",
"www;0*$$-;;o   &;w;;507<;<5&=,&o X=9w3# @$*#   <wwwse$$$@.@*7pt;%o&5weddsiw0-@  *shl&;;&%%Owww;q&%%-;*.   #-q=-;6<;;5*&-;&o @=60",
"www;0&$$;;=.   #=0=-;6<;;5=%=;&o @-605% O#*# -*2wwtsq$$$@o#,yay3&.*5eysssae0-#. &shk&;;-## qww3q&%$-;.   .$-0-*;;;;<*$-;-$XX%<03",
"www30&%%-;.   .#;0-=;;;;<*%-,-$X.$,039=  #*#<vp2wwhw%%$$@ o,ydse%.&5ydssssi0-%@ &djy&;;-%# wwwwp*%%-;.   @%-w=%---<6=&-;&. @=9w3",
"wwwwp*%%;;    #$;0=$=-=<4=&-;&X @-9w39-. @<&cZi<wwjw$$$%@.@,yady- @3eisdssiw0%@ $iz%*;,-$# wwwwn-%%--.   #%<0-%*&%9*%-;;&X #-0w6",
"wwwwn-$$-;.   #&,w=$=&%0*%=;;&. #-9e66;o O7<dCa2wqhe#%%$@o$,yssd0 @5etaasdiyj%#. <l&;;;-%#.wwwwB;%%-;.   #-qw=$%%;6&&-;;&X &<000",
"w0wwV;$$-;.   @;0w=%$$,6*%-;;&X &200w;$o #<<@hp2wtd7%$%$@O%<yssky #5yiwessiyf%## <l&;;;-$@owwwwj0%%-*    #-0i-%%=5*%--;;%. &9w59",
"wwwwj0%%-*    #-0i;%$=4*%-,;,%. &9w57;$o$53,#dp,qhe%%%%%@o=7yssky O<yaeissiij%&#X;j4-;;*#.%7wwwwv*%=.    @-qje076*$&-;;-@ .&9065",
"7qwwwv&%;.    @-0ke796*%%-;;-O .*9055*$o7w<<#hp<whr%%#%#@O,wysslyX =eaddssiyj&=&@&yk&;-%# $;0wwwn*%=.    #-0yjzc6%$-;;;&. @-0<7;",
";qwwwn*%=.    #-0yjzc6$%-;,-&X O-0<7,%%o<iw63zi,edw%#%%#o@,wisski# &qessssiif<--@%yk&;-$@.$;0wwwV=%% .   #-0cw<i<%%-;;;*X .<w<7;",
";qwwwV=%$..   #-0vw<i<%%-,-,&X .<w<7;%&O<we0n:d,dy*=%%%@ o,yssdjw@ #6essssdaif&-#%th<-=%#.%<wwwwv*%%.%.  #<0viwp<%-;;;-%. @6w56-",
"<qwwwv*$$.$.  $,qcuwd,$-;;;-%. @6w55-=;$;45m::i<ft*;=$$@ +,tsskp$# O<easssspid*-#%wuk$$$@o%wwwwtn*$# $o  *0wciwa<$--;;&o  @50w,%",
"wwwwtb*$# #o  *0wviwd<$-;;;&o  @5ww,$=;&o%c:::d3fe=;=%$+ +,tsdkp$@  -wtsssdiih&-#%wtj=$#X*&0wwtzC*%. $%. *0tkywa<%-;;;%o .%63w<%",
"0wwtlZ=$. #%X *0rlywi,$-;;;%o  $63w<$-,&ob::::iui&;;;*$+ @;ysskp$#  =wtsssspid*-@%wwih$##0=;q0nyC-$. $&$.*0c60wa<&-;;;%o #5w0s7%",
";w9nyZ=$. $%$.=0c40wd,%-;;;&X #4e0d7%=;*ov::::pui*;;;*+ +%<isskp#O  =qtsdssaih&-#%wwud$##w0;70zdBw%..$-%.*0c30wa<-;;;-%X @50k6%%",
";90zdVw$..%-%.*7c48wd<=;;;-$X #40k6$$=;&ob::::pii*;;;*+ o-0dadjt@  %7wwysssiih&=#%wwij$$*wq;<cesdZ%.#%-&.*0c40wi,-;;;&.  @56h0&$",
";3cessZ%.$%-&.=8x40wu,-;;;&X  @46h9&$=;&ob::::pui*;;;*o o3taihs$@ osn0wtssiwih&-#&wwud**qey4xesvdC%.$%-;.*0c30a-$-;;-&.%O#7jwhe&",
"5zesvdZ$.#%-;.*0c46d-#-;;;&.$o#7jwhe&$**on::::pii*;;;&&#+9iwyls$@.e:l&wtsssaid&=#wwwwuj#eylcessvhZ. #;;;.*0c37i-%-;;;&.v0-de0whw",
"cessvhZ. #;;;.=0z46d-%-;;;&.cq-de0wde*%=#lg:::pyi*;;=+jz@9ieyls%%@e:k%wysssaih**$wwwwq6,echwwssvnZX $;;,.*0c6,u-#-;;;&Ov06je7wwk",
"wwssnnZ. #;,;.*0c6;i-%-,;;&on06je7wwk7%*&Xj:::iii=;;*Ojl#6yssls=$@t:l*0yssspid&=#wwww3<M&shwwssvns. #-;;.=0cvwy-#%--&XM:0he9wwwj",
"wqssbbs  #--;.=0cnqu=%#-;&XM:0de7wwwjq%%$ol:::i<dt*;=Ojl#4tssls;*#e::b*wedspih**$qwq6w:B&sswwssvnd &%%-;.*0vtk6%%%%%%XM:t=6wwwww",
"wwssvbd.&%%-;.*0crl6%$$$$$XM:t=6wwqwwlt&$ok:::a<di--*$zz%6tslp;;*@t::v&wtssiih&*$wq6q::B,aswwssvdd u*%%-.*0ctwz<%%%#%.N::7%7wwwi",
"wwssbdd u*%$-X*0cewc<%$$$$XN::7%7wq0dszw$Xk:::i<ylt=$d:l-wyslp;;=@t::m*wesiwih&=#w73::::M@swqssvdd.7d&%.-,kywwc<%#%%%XM::6&7wwiz",
"qwssvds.7i*$.-;lywwz<%$$$$oM::7&7wwicnlz0Xk:::p2whe=$d:l=wtslp;=%@t::n*wwwwwih&;*  3:::::B% 0esssw.7i*%.-;zyaewc7%%%XM:::6&9wicn",
" 0wssdw.7d*$.-;zrdewx6$$%XM:::7%7wpznnnl,m::::p<ylt%@h:l-qtslp;=@.t:::c*wwwwih*;;,=3:::::C# 0qwawoqwqs-.-0ztwwez7%%#.M:::0*7icnn",
" 0wwaqOqwqs;.=0cyqwwx8%%$XM:::0*7pcbnnnk;v::::i2yslw#h:l-qylni;=@w::::c*www0ibd*=;=<:::::C# 0wwwoqqwwb<.-zywwzhez4%%XM::::y<iszn",
" 0qwqo0wwwb<.-lywwxhez4%$on::::y<isznnbk,b::::p2ydz0s::l-wszli;=Ow::::c*wwwwicknh$%=6::::C# 0wwwoqqqddc%-kywacdez4#%XM::::y<iscn",
" 0wwwo0wwadc%-lywavhez4$$XM::::t3pscbnnl,v::::p<ysd<s::l=ykzdld=@w::::c*wwwwicddjbk#6:::::B 0ww@7wwadsd#-ktwavhel4%.n:::::y<pszn",
" 0ww@7wwasss#-kywavdel4$.n:::::y<isznnbk;n::::p<ys3.a::l-dzdsskui::::::z%wwicssssddj6:::::: 0ww@8wwasss# juwachel4%.n:::::y&0isc",
" 0wq@0wwasss$ jywavdez4%.n:::::y&9pscbls,b:::::y35k::::lwlsssss8p::::::c$wicesssssst6:::::: 0wO 0wwass=.jiwwscvdyj<.n:::::Nw5eid",
" 0w@ 0wwasd-.hiwwacndyk<.n:::::Nw3eidcl4k::::::i-;k::::zwlsssswym:::::::cO;eweydssde4::::::V&q m&qwas#n-cuwwdznhrz3.n::::::e3wud",
"C&0 M*0was#n-ziwwsvbhrz3.n::::::e3eisdd,c:::::::fs:::::l-eysssqt:::::::::x.%wwwessu4g::::::::#m::#0dsoB-qwwwdvnbjr#M:::::::e&0wi",
"::@m::#wasoB-0ww0dvnbjr#B:::::::e*9wiss<c::::::::::::::z-wets6t::::::::::::m%wwesst<:::::::::::::@ww@C:-0qwqdvnnkr#B::::::::q <w",
"::::::@wwOV:;0wwwicnnkr#B::::::::0.<www*c::::::::::::::l=wwys6t:::::::::::::n&wwtsu<:::::::::::::V#7o>:V=6wwuxnjde#B::::::::VBt5",
"::::::B#0o>:V=7wwdcnjsr#B::::::::VBe5w;j:::::::::::::::z-wwt0pV::::::::::::::z-wet<C::::::::::::::C;M:::C47wwdvdt*n:::::::::::me",
":::::::V;M:::V57weschy&v:::::::::::m0oh:::::::::::::::::f;ww2f::::::::::::::::l%ee;::::::::::::::::m:::::g<7wdse&n::::::::::::::",
"::::::::m:::::g<0wide&n::::::::::::::C::::::::::::::::::j;w3i:::::::::::::::::c#w6;:::::::::::::::::::::::B,0ee*l:::::::::::::::",
":::::::::::::::B,0ee*l::::::::::::::::::::::::::::::::::Vi;2p:::::::::::::::::ml#7B::::::::::::::::::::::::B-6*n::::::::::::::::",
"::::::::::::::::B-7&n::::::::::::::::::::::::::::::::::::fXeV:::::::::::::::::::BV::::::::::::::::::::::::::V5v:::::::::::::::::",
":::::::::::::::::V5v:::::::::::::::::::::::::::::::::::::NVV:::::::::::::::::::::::::::::::::::::::::::::::::M::::::::::::::::::",
"::::::::::::::::::M:::::::::::::::::::::::::::::::::::::::::::::::::::::::::::::::::::::::::::::::::::::::::::::::::::::::::::::",
"::::::::::::::::::::::::::::::::::::::::::::::::::::::::::::::::::::::::::::::::::::::::::::::::::::::::::::::::::::::::::::::::",
"::::::::::::::::::::::::::::::::::::::::::::::::::::::::::::::::::::::::::::::::::::::::::::::::::::::::::::::::::::::::::::::::",
"::::::::::::::::::::::::::::::::::::::::::::::::::::::::::::::::::::::::::::::::::::::::::::::::::::::::::::::::::::::::::::::::",
"::::::::::::::::::::::::::::::::::::::::::::::::::::::::::::::::::::::::::::::::::::::::::::::::::::::::::::::::::::::::::::::::",
"::::::::::::::::::::::::::::::::::::::::::::::::::::::::::::::::::::::::::::::::::::::::::::::::::::::::::::::::::::::::::::::::",
"::::::::::::::::::::::::::::::::::::::::::::::::::::::::::::::::::::::::::::::::::::::::::::::::::::::::::::::::::::::::::::::::",
"::::::::::::::::::::::::::::::::::::::::::::::::::::::::::::::::::::::::::::::::::::::::::::::::::::::::::::::::::::::::::::::::",
"::::::::::::::::::::::::::::::::::::::::::::::::::::::::::::::::::::::::::::::::::::::::::::::::::::::::::::::::::::::::::::::::",
"::::::::::::::::::::::::::::::::::::::::::::::::::::::::::::::::::::::::::::::::::::::::::::::::::::::::::::::::::::::::::::::::",
"::::::::::::::::::::::::::::::::::::::::::::::::::::::::::::::::::::::::::::::::::::::::::::::::::::::::::::::::::::::::::::::::",
"::::::::::::::::::::::::::::::::::::::::::::::::::::::::::::::::::::::::::::::::::::::::::::::::::::::::::::::::::::::::::::::::",
"::::::::::::::::::::::::::::::::::::::::::::::::::::::::::::::::::::::::::::::::::::::::::::::::::::::::::::::::::::::::::::::::",
"::::::::::::::::::::::::::::::::::::::::::::::::::::::::::::::::::::::::::::::::::::::::::::::::::::::::::::::::::::::::::::::::",
"::::::::::::::::::::::::::::::::::::::::::::::::::::::::::::::::::::::::::::::::::::::::::::::::::::::::::::::::::::::::::::::::",
"::::::::::::::::::::::::::::::::::::::::::::::::::::::::::::::::::::::::::::::::::::::::::::::::::::::::::::::::::::::::::::::::",
"::::::::::::::::::::::::::::::::::::::::::::::::::::::::::::::::::::::::::::::::::::::::::::::::::::::::::::::::::::::::::::::::",
"::::::::::::::::::::::::::::::::::::::::::::::::::::::::::::::::::::::::::::::::::::::::::::::::::::::::::::::::::::::::::::::::",
"::::::::::::::::::::::::::::::::::::::::::::::::::::::::::::::::::::::::::::::::::::::::::::::::::::::::::::::::::::::::::::::::"
};
